<?xml version="1.0" encoding="UTF-8"?>
<!DOCTYPE svg PUBLIC "-//W3C//DTD SVG 1.1//EN" "http://www.w3.org/Graphics/SVG/1.1/DTD/svg11.dtd">
<svg version="1.1" xmlns="http://www.w3.org/2000/svg" xmlns:xlink="http://www.w3.org/1999/xlink" x="0" y="0" width="2560" height="1600" viewBox="0, 0, 2560, 1600">
  <g id="roads">
    <path d="M84.5,168.5 L2460.5,168.5" fill-opacity="0" stroke="#80C8FF" stroke-width="100"/>
    <path d="M84.5,263.5 L2460.5,264.5" fill-opacity="0" stroke="#FFF3AA" stroke-width="100"/>
    <path d="M2460.5,408.5 L84.5,407.5" fill-opacity="0" stroke="#86FF55" stroke-width="200"/>
    <path d="M84.5,492.5 L2460.5,492.5" fill-opacity="0" stroke="#AAAAAA" stroke-width="50"/>
    <path d="M84.5,1140.5 L2460.5,1140.5" fill-opacity="0" stroke="#AAAAAA" stroke-width="50"/>
    <path d="M480.5,1068.5 L480.5,1128.5" fill-opacity="0" stroke="#AAAAAA" stroke-width="30"/>
    <path d="M936.5,504.5 L936.5,1128.5" fill-opacity="0" stroke="#AAAAAA" stroke-width="40"/>
    <path d="M2052.5,504.5 L2052.5,1128.5" fill-opacity="0" stroke="#AAAAAA" stroke-width="40"/>
    <path d="M1524.5,512.75 L1524.5,1120.25" fill-opacity="0" stroke="#AAAAAA" stroke-width="40"/>
  </g>
  <g id="Frame" display="none">
    <path d="M94.5,96.5 L2450.5,96.5 C2456.023,96.5 2460.5,100.977 2460.5,106.5 L2460.5,1382.5 C2460.5,1388.023 2456.023,1392.5 2450.5,1392.5 L94.5,1392.5 C88.977,1392.5 84.5,1388.023 84.5,1382.5 L84.5,106.5 C84.5,100.977 88.977,96.5 94.5,96.5 z" fill-opacity="0" stroke="#D5D5D5" stroke-width="50"/>
  </g>
  <g id="Text">
    <text transform="matrix(1, 0, 0, 1, 414.972, 168)">
      <tspan x="-234.972" y="25" font-family="Raleway-Medium" font-size="72" fill="#2B2B2B">Andaman Sea</tspan>
    </text>
    <text transform="matrix(1, 0, 0, 1, 936, 264)">
      <tspan x="-262.692" y="25" font-family="Raleway-Medium" font-size="72" fill="#2B2B2B">Nai Yang Beach</tspan>
    </text>
    <text transform="matrix(1, 0, 0, 1, 1548.996, 391)">
      <tspan x="-336.996" y="25" font-family="Raleway-Medium" font-size="72" fill="#2B2B2B">Sirinat National Park</tspan>
    </text>
  </g>
  <g id="Hotels" display="none">
    <text transform="matrix(1, 0, 0, 1, 1621.341, 546.55)">
      <tspan x="-47.484" y="12.5" font-family="Raleway-Regular" font-size="36" fill="#2B2B2B">Dewa</tspan>
    </text>
    <text transform="matrix(1, 0, 0, 1, 812.845, 570.114)">
      <tspan x="-51.768" y="-8.5" font-family="Raleway-Regular" font-size="36" fill="#202020">Indigo </tspan>
      <tspan x="-42.678" y="33.5" font-family="Raleway-Regular" font-size="36" fill="#202020">Pearl</tspan>
    </text>
  </g>
  <g id="Symbols">
    <path d="M979.236,1009.639 C983.218,1009.639 986.456,1012.424 986.456,1015.862 L986.121,1017.264 L993.684,1021.599 L1088,1032.446 L1076.215,1076.869 L1016.471,1076.869 L1011.729,1089.746 C1014.081,1091.282 1015.801,1093.498 1016.411,1096.078 L1054.241,1096.078 C1055.507,1091.494 1060.264,1088.074 1065.981,1088.074 C1072.658,1088.074 1078.077,1092.736 1078.077,1098.479 C1078.077,1104.223 1072.658,1108.884 1065.981,1108.884 C1060.948,1108.884 1056.638,1106.24 1054.822,1102.481 L1015.614,1102.481 C1013.709,1106.246 1009.347,1108.884 1004.255,1108.884 C997.406,1108.884 991.853,1104.107 991.853,1098.217 C991.853,1092.32 997.406,1087.543 1004.255,1087.543 L1004.724,1087.581 L1008.662,1076.869 L1004.255,1076.869 L989.531,1026.92 L980.665,1021.823 L979.236,1022.073 C975.246,1022.073 972,1019.294 972,1015.862 C972,1012.424 975.246,1009.639 979.236,1009.639 z" fill="#2BFFFF"/>
    <path d="M480.005,919.116 L510.063,942.56 L510.063,921.437 L530.667,921.437 L530.667,958.628 L559.5,981.127 L546.992,997.846 L538.443,991.173 L538.443,1068 L421.557,1068 L421.557,991.173 L412.998,997.846 L400.5,981.116 L480.005,919.116 z M480.005,947.069 L433.016,983.733 L433.016,1056.304 L459.401,1056.304 L459.401,1011.864 L500.609,1011.864 L500.609,1056.304 L526.994,1056.304 L526.994,983.733 L480.005,947.069 z" fill="#8CC400"/>
    <path d="M2247.229,928.771 C2251.872,931.902 2246.606,949.724 2243.303,954.62 L2231.254,972.483 L2248.359,1024.45 C2248.756,1025.61 2248.578,1026.916 2247.865,1027.973 L2247.415,1028.639 C2246.737,1029.645 2245.656,1030.312 2244.492,1030.41 C2243.32,1030.531 2242.19,1030.083 2241.431,1029.219 L2214.506,997.313 L2196.09,1024.617 L2201.457,1040.387 C2201.904,1041.581 2201.737,1042.95 2201.006,1044.034 L2200.697,1044.491 C2200.01,1045.51 2198.896,1046.173 2197.708,1046.265 C2196.516,1046.364 2195.381,1045.883 2194.636,1044.972 L2181.172,1026.704 L2159.134,1021.149 C2158.01,1020.799 2157.135,1019.933 2156.784,1018.785 C2156.419,1017.656 2156.618,1016.374 2157.305,1015.355 L2157.613,1014.898 C2158.348,1013.808 2159.555,1013.14 2160.83,1013.107 L2177.506,1012.11 L2195.936,984.787 L2156.267,971.775 C2155.182,971.395 2154.343,970.516 2154.016,969.383 C2153.671,968.267 2153.885,967.015 2154.563,966.009 L2155.013,965.343 C2155.726,964.286 2156.869,963.632 2158.094,963.565 L2212.684,959.958 L2224.732,942.094 C2228.035,937.198 2242.586,925.639 2247.229,928.771 z" fill="#001699"/>
    <g>
      <path d="M798.308,218.5 C795.583,218.5 792.955,218.036 790.628,217.25 C788.223,216.407 785.51,215.919 782.694,215.919 C779.87,215.919 777.161,216.407 774.759,217.25 C772.417,218.036 769.804,218.5 767.064,218.5 C764.339,218.5 761.711,218.036 759.384,217.25 C756.959,216.407 754.266,215.919 751.45,215.919 C748.626,215.919 745.917,216.407 743.531,217.25 C741.173,218.036 738.544,218.5 735.82,218.5 C733.076,218.5 730.467,218.036 728.124,217.25 C725.715,216.407 723.006,215.919 720.206,215.919 C717.366,215.919 714.657,216.407 712.271,217.25 C709.929,218.036 707.3,218.5 704.56,218.5 C701.828,218.5 699.199,218.036 696.857,217.25 C694.451,216.407 691.746,215.919 688.946,215.919 C686.122,215.919 683.413,216.407 681.027,217.25 C678.669,218.036 676.056,218.5 673.308,218.5 L673.308,209.866 C676.052,209.866 678.669,209.402 681.027,208.616 C683.417,207.809 686.122,207.317 688.946,207.317 C691.746,207.317 694.455,207.806 696.857,208.616 C699.199,209.402 701.828,209.866 704.56,209.866 C707.3,209.866 709.929,209.402 712.271,208.616 C714.661,207.809 717.366,207.317 720.206,207.317 C723.006,207.317 725.715,207.806 728.124,208.616 C730.467,209.402 733.072,209.866 735.82,209.866 C738.544,209.866 741.173,209.402 743.531,208.616 C745.921,207.809 748.626,207.317 751.45,207.317 C754.266,207.317 756.959,207.806 759.384,208.616 C761.711,209.402 764.339,209.866 767.064,209.866 C769.804,209.866 772.417,209.402 774.759,208.616 C777.165,207.809 779.87,207.317 782.694,207.317 C785.51,207.317 788.227,207.806 790.628,208.616 C792.955,209.402 795.583,209.866 798.308,209.866 L798.308,218.5 z" fill="#001CC4"/>
      <path d="M748.132,117.5 L748.132,182.44 L676.977,182.44 z" fill="#001CC4"/>
      <path d="M754.883,132.495 C775.819,139.768 800.689,159.174 797.439,182.45 L754.883,182.45 L754.883,132.495 z" fill="#001CC4"/>
      <path d="M788.43,187.138 L769.012,187.138 L693.789,187.138 L693.789,199.976 C694.841,200.19 695.889,200.416 696.86,200.773 C699.203,201.536 701.831,202 704.556,202 C707.3,202 709.933,201.536 712.275,200.773 C714.665,199.931 717.37,199.443 720.21,199.443 C723.026,199.443 725.719,199.931 728.12,200.773 C730.463,201.536 733.076,202 735.824,202 C738.548,202 741.177,201.536 743.535,200.773 C745.925,199.931 748.63,199.443 751.454,199.443 C754.27,199.443 756.963,199.931 759.388,200.773 C761.715,201.536 764.336,202 767.068,202 C767.59,202 768.088,201.908 768.594,201.854 C768.641,201.854 768.657,201.908 768.709,201.908 C769.044,201.908 769.291,201.786 769.625,201.786 C770.247,201.726 770.884,201.682 771.509,201.559 C777.102,200.705 780.718,197.442 780.718,197.442 L791.6,187.138 L788.43,187.138 z" fill="#001CC4"/>
    </g>
    <g>
      <path d="M1974.122,344 L1995.682,367.5 L1984.902,367.5 L2006.463,391 L1990.292,391 L2017.243,420.375 L1984.902,420.375 L1984.902,438 L1963.341,438 L1963.341,420.375 L1931,420.375 L1957.951,391 L1941.78,391 L1963.341,367.5 L1952.561,367.5 L1974.122,344 z" fill="#009916"/>
      <path d="M2125.404,348 C2126.614,348 2127.752,348.66 2128.407,349.725 C2129.062,350.812 2129.14,352.177 2128.628,353.332 L2127.667,355.5 L2117.512,378.555 L2121.732,386.76 C2124.031,386.01 2126.422,385.5 2128.948,385.5 C2142.703,385.5 2153.854,397.245 2153.854,411.75 C2153.854,426.255 2142.703,438 2128.948,438 C2115.193,438 2104.042,426.255 2104.042,411.75 C2104.042,402.638 2108.461,394.628 2115.15,389.91 L2113.713,387.158 L2109.465,378.982 L2108.959,378 L2083.101,378 C2080.14,378 2077.522,380.01 2076.611,382.965 L2075.095,387.84 C2083.748,391.957 2089.811,401.085 2089.811,411.75 C2089.811,426.255 2078.66,438 2064.906,438 C2051.151,438 2040,426.255 2040,411.75 C2040,397.245 2051.151,385.5 2064.906,385.5 C2066.044,385.5 2067.133,385.702 2068.243,385.853 L2072.213,373.08 C2072.69,371.543 2074.049,370.5 2075.594,370.5 L2113.201,370.5 L2119.818,355.5 L2107.601,355.5 C2105.636,355.5 2104.042,353.827 2104.042,351.75 C2104.042,349.688 2105.636,348 2107.601,348 L2125.404,348 z M2128.948,393 C2127.653,393 2126.401,393.158 2125.184,393.443 L2133.936,410.415 C2134.399,411.307 2134.491,412.365 2134.199,413.332 C2133.908,414.3 2133.253,415.103 2132.392,415.56 L2132.378,415.575 C2130.67,416.467 2128.599,415.777 2127.674,414.022 L2118.609,396.562 C2114.119,399.975 2111.158,405.495 2111.158,411.75 C2111.158,422.092 2119.135,430.5 2128.948,430.5 C2138.761,430.5 2146.738,422.092 2146.738,411.75 C2146.738,401.408 2138.761,393 2128.948,393 z M2064.906,393 C2055.093,393 2047.116,401.408 2047.116,411.75 C2047.116,422.092 2055.093,430.5 2064.906,430.5 C2074.718,430.5 2082.695,422.092 2082.695,411.75 C2082.695,404.438 2078.667,398.152 2072.847,395.062 L2069.203,406.799 C2068.905,407.737 2068.271,408.525 2067.425,408.982 C2066.578,409.418 2065.603,409.492 2064.706,409.185 C2062.849,408.525 2061.839,406.418 2062.443,404.452 L2065.973,393.12 C2065.617,393.09 2065.275,393 2064.906,393 z M2086.274,355.5 L2064.906,355.5 C2062.941,355.5 2061.348,357.188 2061.348,359.25 C2061.348,361.327 2062.941,363 2064.906,363 L2075.579,363 C2080.93,363 2084.083,361.08 2087.228,358.125 C2087.662,357.712 2087.811,357.052 2087.598,356.467 C2087.392,355.883 2086.865,355.5 2086.274,355.5 z" fill="#009916"/>
      <g>
        <path d="M2207.83,362.151 C2213.134,362.151 2217.43,358.972 2217.43,355.066 C2217.43,351.16 2213.134,348 2207.83,348 C2202.519,348 2198.204,351.157 2198.204,355.066 C2198.204,358.975 2202.523,362.151 2207.83,362.151" fill="#009916"/>
        <path d="M2191.59,363.32 C2191.954,362.233 2191.023,361.147 2189.565,360.874 L2181.572,359.453 C2180.06,359.202 2178.577,359.849 2178.242,360.938 L2171.51,381.444 C2171.139,382.53 2172.041,383.616 2173.528,383.889 L2181.572,385.31 C2183.011,385.583 2184.524,384.914 2184.858,383.825 L2191.59,363.32 z" fill="#009916"/>
        <path d="M2228.553,436.243 C2228.553,436.286 2228.524,436.326 2228.524,436.348 C2228.524,437.247 2229.51,437.977 2230.731,437.977 C2231.854,437.977 2232.781,437.351 2232.927,436.557 L2249.059,372.156 L2249.059,372.03 C2249.059,371.153 2248.092,370.42 2246.871,370.42 C2245.769,370.42 2244.911,371.046 2244.675,371.84 L2228.553,436.243 z" fill="#009916"/>
        <path d="M2174.889,432.023 C2174.805,432.357 2174.776,432.702 2174.776,433.026 C2174.776,435.785 2177.786,438 2181.534,438 C2184.602,438 2187.194,436.496 2188,434.447 L2199.622,399.057 L2210.698,434.236 C2211.414,436.408 2214.071,437.997 2217.23,437.997 C2220.978,437.997 2223.988,435.782 2223.988,433.023 C2223.988,432.646 2223.93,432.293 2223.846,431.937 L2208.644,385.198 L2209.931,381.08 L2210.931,384.321 C2211.832,386.432 2214.453,386.64 2214.453,386.64 L2230.095,389.567 C2230.4,389.61 2230.72,389.629 2231.025,389.629 C2233.588,389.629 2235.667,388.125 2235.667,386.242 C2235.667,384.631 2234.155,383.274 2232.116,382.919 L2218.561,380.409 L2214.842,369.289 C2213.083,363.082 2205.009,363.227 2205.009,363.227 C2197.179,363.079 2195.212,369.142 2195.212,369.142 L2174.889,432.023 z" fill="#009916"/>
      </g>
      <path d="M2310.7,397.857 L2337.368,397.857 L2328.582,371.68 L2319.484,371.68 L2310.7,397.857 z M2295.798,371.68 L2295.798,362 L2354.202,362 L2354.202,371.68 L2339.455,371.68 L2348.241,397.857 L2370,397.857 L2370,407.524 L2351.519,407.524 L2361.799,438 L2351.823,438 L2341.543,407.524 L2308.321,407.524 L2298.108,438 L2288.132,438 L2298.329,407.524 L2280,407.524 L2280,397.857 L2301.602,397.857 L2310.402,371.68 L2295.798,371.68 z" fill="#009916"/>
    </g>
    <g>
      <path d="M947,215 C944.654,215 942.418,214.345 940.427,213.229 C938.367,212.083 936.046,211.391 933.635,211.391 C931.204,211.391 928.886,212.079 926.83,213.229 C924.839,214.345 922.602,215 920.257,215 C917.911,215 915.675,214.345 913.684,213.229 C911.594,212.083 909.275,211.391 906.892,211.391 C904.461,211.391 902.143,212.079 900.101,213.229 C898.096,214.345 895.832,215 893.514,215 C891.165,215 888.931,214.345 886.906,213.229 C884.847,212.083 882.532,211.391 880.149,211.391 C877.718,211.391 875.4,212.079 873.357,213.229 C871.353,214.345 869.089,215 866.74,215 C864.421,215 862.158,214.345 860.167,213.229 C858.107,212.083 855.792,211.391 853.375,211.391 C850.978,211.391 848.66,212.079 846.618,213.229 C844.579,214.345 842.349,215 840,215 L840,202.839 C842.349,202.839 844.582,202.184 846.618,201.101 C848.663,199.922 850.978,199.234 853.375,199.234 C855.792,199.234 858.111,199.922 860.167,201.101 C862.158,202.184 864.421,202.839 866.74,202.839 C869.089,202.839 871.356,202.184 873.357,201.101 C875.403,199.922 877.718,199.234 880.149,199.234 C882.532,199.234 884.85,199.922 886.906,201.101 C888.931,202.184 891.161,202.839 893.514,202.839 C895.832,202.839 898.096,202.184 900.101,201.101 C902.146,199.922 904.461,199.234 906.892,199.234 C909.275,199.234 911.594,199.922 913.684,201.101 C915.675,202.184 917.911,202.839 920.257,202.839 C922.602,202.839 924.839,202.184 926.83,201.101 C928.889,199.922 931.204,199.234 933.635,199.234 C936.046,199.234 938.371,199.922 940.427,201.101 C942.418,202.184 944.654,202.839 947,202.839 L947,215 z" fill="#001CC4"/>
      <path d="M931.498,180.629 C938.534,180.629 944.235,173.579 944.235,164.926 C944.235,156.273 938.534,149.257 931.498,149.257 C924.461,149.257 918.76,156.273 918.76,164.926 C918.76,173.579 923.953,180.629 931.498,180.629" fill="#001CC4"/>
      <path d="M857.371,189.452 C858.356,189.746 859.294,190.174 860.167,190.665 C862.171,191.781 864.435,192.436 866.753,192.436 C869.085,192.436 871.349,191.781 873.354,190.665 C875.406,189.519 877.721,188.798 880.145,188.798 C882.549,188.798 884.867,189.519 886.91,190.665 C888.928,191.781 891.178,192.436 893.51,192.436 C895.829,192.436 898.092,191.781 900.097,190.665 C902.15,189.519 904.465,188.798 906.889,188.798 C909.292,188.798 911.611,189.519 913.68,190.665 C915.671,191.781 917.908,192.436 920.253,192.436 C921.958,192.436 923.608,192.075 925.166,191.483 L903.929,144.307 L928.627,138.768 C932.244,137.916 934.886,134.408 934.886,129.917 C934.886,124.966 931.596,121 927.601,121 C927.314,121 927.042,121 926.782,121.034 L888.638,129.59 C885.955,130.345 882.406,135.163 884.424,141.097 C884.537,141.424 884.642,141.718 884.752,142.049 L894.714,164.177 L857.371,189.452 z" fill="#001CC4"/>
    </g>
    <g>
      <path d="M1279.8,211 L1284.272,211 L1284.272,227.374 L1279.8,227.374 z" fill="#EECC00"/>
      <path d="M1279.535,290.626 L1284.007,290.626 L1284.007,307 L1279.535,307 z" fill="#EECC00"/>
      <path d="M1315.002,255.836 L1332,255.836 L1332,260.132 L1315.002,260.132 z" fill="#EECC00"/>
      <path d="M1232,255.569 L1248.998,255.569 L1248.998,259.865 L1232,259.865 z" fill="#EECC00"/>
      <path d="M1255.419,240.06 L1253.251,243.828 L1238.394,235.897 L1240.562,232.129 z" fill="#EECC00"/>
      <path d="M1269.316,229.721 L1265.529,232.013 L1256.48,218.14 L1260.267,215.848 z" fill="#EECC00"/>
      <path d="M1309.065,299.445 L1305.2,301.591 L1296.713,287.405 L1300.578,285.259 z" fill="#EECC00"/>
      <path d="M1326.693,280.169 L1324.525,283.937 L1309.646,275.995 L1311.814,272.227 z" fill="#EECC00"/>
      <path d="M1263.868,285.058 L1267.78,287.146 L1259.535,301.478 L1255.623,299.39 z" fill="#EECC00"/>
      <path d="M1251.351,271.148 L1253.7,274.801 L1239.25,283.425 L1236.9,279.772 z" fill="#EECC00"/>
      <path d="M1323.607,232.971 L1325.843,236.702 L1311.123,244.89 L1308.886,241.16 z" fill="#EECC00"/>
      <path d="M1303.943,216.061 L1307.85,218.158 L1299.581,232.45 L1295.674,230.353 z" fill="#EECC00"/>
      <path d="M1254.435,258.948 C1254.435,244.246 1266.792,232.344 1282.054,232.344 C1297.292,232.344 1309.649,244.246 1309.649,258.948 C1309.649,273.637 1297.292,285.54 1282.054,285.54 C1266.792,285.552 1254.435,273.637 1254.435,258.948" fill="#EECC00"/>
    </g>
    <g>
      <path d="M2252.901,1266.176 C2244.725,1266.176 2238.107,1269.723 2238.107,1274.094 C2238.107,1278.471 2244.725,1282.018 2252.901,1282.018 C2261.031,1282.018 2267.673,1278.471 2267.673,1274.094 C2267.673,1269.72 2261.031,1266.176 2252.901,1266.176" fill="#FF55E7"/>
      <path d="M2327.887,1281.853 C2327.338,1280.14 2324.744,1279.17 2324.59,1279.108 L2237.701,1248 L2229.64,1254.358 C2228.151,1255.613 2228.792,1257.267 2231.083,1258.085 C2233.396,1258.912 2236.459,1258.57 2237.948,1257.314 L2242.665,1253.646 L2313.225,1278.943 L2255.421,1284.588 C2251.316,1284.958 2248.368,1287.187 2249.284,1289.36 L2261.862,1315.773 L2221.184,1348.912 C2218.733,1351.166 2220.222,1354.072 2224.413,1355.366 C2228.672,1356.684 2234.054,1355.875 2236.499,1353.612 C2236.499,1353.612 2278.935,1318.956 2279.101,1318.742 C2279.101,1318.742 2281.294,1323.557 2281.294,1323.57 L2274.91,1349.574 C2274.103,1352.16 2277.361,1354.582 2282.17,1355.014 C2286.979,1355.453 2291.543,1353.715 2292.333,1351.141 L2298.906,1324.4 C2299.117,1323.719 2298.86,1322.214 2298.591,1321.552 L2284.065,1290.24 L2321.807,1286.547 C2325.878,1286.171 2328.597,1284.051 2327.887,1281.853" fill="#FF55E7"/>
    </g>
  </g>
  <g id="Road_names">
    <text transform="matrix(1, 0, 0, 1, 2229.72, 1144.384)">
      <tspan x="-122.976" y="9.5" font-family="Raleway-Regular" font-size="48" fill="#2B2B2B">Route 4031</tspan>
    </text>
    <text transform="matrix(1, 0, 0, 1, 2244.168, 492)">
      <tspan x="-125.832" y="16.5" font-family="Raleway-Regular" font-size="48" fill="#2B2B2B">Route 4027</tspan>
    </text>
  </g>
  <g id="Suntalee">
    <g>
      <path d="M275.883,1014.729 C271.941,1018.676 269.089,1024.034 268.407,1030.84 C267.351,1041.371 271.877,1049.64 281.62,1050.616 C289.716,1051.428 293.048,1046.335 296.59,1036.27 C299.83,1027.043 302.074,1021.985 307.805,1022.56 C312.891,1023.069 315.119,1027.562 314.393,1034.798 C313.618,1042.535 309.339,1049.125 305.807,1051.883 L310.943,1055.509 C316.174,1050.244 319.399,1043.331 320.182,1035.523 C321.23,1025.063 317.664,1016.601 307.85,1015.617 C298.679,1014.698 295.01,1020.988 291.583,1031.354 C288.586,1040.316 286.73,1044.399 281.285,1043.853 C276.127,1043.336 273.334,1039.438 274.124,1031.558 C274.734,1025.468 277.923,1020.361 280.811,1018.262 z" fill="#44EE00"/>
      <path d="M275.883,1014.729 C271.941,1018.676 269.089,1024.034 268.407,1030.84 C267.351,1041.371 271.877,1049.64 281.62,1050.616 C289.716,1051.428 293.048,1046.335 296.59,1036.27 C299.83,1027.043 302.074,1021.985 307.805,1022.56 C312.891,1023.069 315.119,1027.562 314.393,1034.798 C313.618,1042.535 309.339,1049.125 305.807,1051.883 L310.943,1055.509 C316.174,1050.244 319.399,1043.331 320.182,1035.523 C321.23,1025.063 317.664,1016.601 307.85,1015.617 C298.679,1014.698 295.01,1020.988 291.583,1031.354 C288.586,1040.316 286.73,1044.399 281.285,1043.853 C276.127,1043.336 273.334,1039.438 274.124,1031.558 C274.734,1025.468 277.923,1020.361 280.811,1018.262 z" fill-opacity="0" stroke="#38C400" stroke-width="2"/>
    </g>
    <g>
      <path d="M328.45,999.258 C330.794,993.216 329.95,986.633 325.913,981.514 L330.22,982.954 C332.42,983.653 334.454,982.589 335.496,979.904 C335.731,979.3 335.883,978.509 336.139,977.45 L331.038,975.471 C330.45,976.787 329.637,977.09 328.161,976.517 L300.371,965.734 L298.079,971.641 L320.029,980.158 C324.591,984.322 326.083,990.23 324.208,995.063 C322.28,1000.03 317.759,1001.133 310.577,998.346 L290.708,990.636 L288.416,996.543 L309.426,1004.696 C319.092,1008.447 325.611,1006.574 328.45,999.258 z" fill="#44EE00"/>
      <path d="M328.45,999.258 C330.794,993.216 329.95,986.633 325.913,981.514 L330.22,982.954 C332.42,983.653 334.454,982.589 335.496,979.904 C335.731,979.3 335.883,978.509 336.139,977.45 L331.038,975.471 C330.45,976.787 329.637,977.09 328.161,976.517 L300.371,965.734 L298.079,971.641 L320.029,980.158 C324.591,984.322 326.083,990.23 324.208,995.063 C322.28,1000.03 317.759,1001.133 310.577,998.346 L290.708,990.636 L288.416,996.543 L309.426,1004.696 C319.092,1008.447 325.611,1006.574 328.45,999.258 z" fill-opacity="0" stroke="#38C400" stroke-width="2"/>
    </g>
    <g>
      <path d="M341.872,930.22 C334.561,924.848 327.673,922.914 322.515,929.934 C318.592,935.272 317.796,942.192 320.284,947.683 L313.785,942.908 L310.375,947.55 L340.661,969.805 L344.413,964.699 L326.137,951.269 C322.576,946.509 322.536,939.51 325.606,935.333 C328.548,931.33 332.84,931.446 339.281,936.178 L356.223,948.627 L359.974,943.521 z" fill="#44EE00"/>
      <path d="M341.872,930.22 C334.561,924.848 327.673,922.914 322.515,929.934 C318.592,935.272 317.796,942.192 320.284,947.683 L313.785,942.908 L310.375,947.55 L340.661,969.805 L344.413,964.699 L326.137,951.269 C322.576,946.509 322.536,939.51 325.606,935.333 C328.548,931.33 332.84,931.446 339.281,936.178 L356.223,948.627 L359.974,943.521 z" fill-opacity="0" stroke="#38C400" stroke-width="2"/>
    </g>
    <g>
      <path d="M375.795,920.009 C375.547,920.811 374.598,923.206 372.721,924.887 C371.058,926.376 368.846,926.712 366.914,924.77 L351.355,907.388 L357.632,901.77 L354.318,898.068 L348.042,903.687 L339.686,894.352 L334.965,898.578 L343.321,907.913 L339.512,911.322 L342.826,915.024 L346.634,911.614 L363.49,930.444 C367.092,934.467 371.621,933.698 375.055,930.625 C378.059,927.936 379.583,924.349 380.283,922.756 z" fill="#44EE00"/>
      <path d="M375.795,920.009 C375.547,920.811 374.598,923.206 372.721,924.887 C371.058,926.376 368.846,926.712 366.914,924.77 L351.355,907.388 L357.632,901.77 L354.318,898.068 L348.042,903.687 L339.686,894.352 L334.965,898.578 L343.321,907.913 L339.512,911.322 L342.826,915.024 L346.634,911.614 L363.49,930.444 C367.092,934.467 371.621,933.698 375.055,930.625 C378.059,927.936 379.583,924.349 380.283,922.756 z" fill-opacity="0" stroke="#38C400" stroke-width="2"/>
    </g>
    <g>
      <path d="M394.927,916.08 C399.336,913.492 403.101,908.528 403.724,902.903 L405.197,905.128 C406.705,907.415 409.425,907.071 411.226,906.014 C411.847,905.65 412.582,905.052 413.316,904.454 L410.547,899.735 C409.268,900.401 408.444,900.134 407.642,898.768 L399.88,885.541 C395.07,877.344 387.074,875.524 378.815,880.371 C374.344,882.994 371.084,886.828 368.563,892.064 L372.441,894.546 C374.523,889.985 377.173,886.677 380.526,884.71 C385.929,881.539 390.991,882.91 394.088,888.188 L395.618,890.797 C392.551,891.261 388.771,892.644 385.604,894.502 C377.594,899.203 374.311,906.555 377.919,912.703 C381.162,918.23 388.406,919.906 394.927,916.08 z M393.888,911.179 C389.293,913.876 384.811,912.498 382.844,909.145 C380.548,905.233 382.816,900.563 388.405,897.283 C391.075,895.716 394.384,894.526 397.513,894.026 L400.319,898.807 C400.72,899.49 400.894,900.641 400.633,902.046 C400.045,905.312 397.365,909.139 393.888,911.179 z" fill="#44EE00"/>
      <path d="M394.927,916.08 C399.336,913.492 403.101,908.528 403.724,902.903 L405.197,905.128 C406.705,907.415 409.425,907.071 411.226,906.014 C411.847,905.65 412.582,905.052 413.316,904.454 L410.547,899.735 C409.268,900.401 408.444,900.134 407.642,898.768 L399.88,885.541 C395.07,877.344 387.074,875.524 378.815,880.371 C374.344,882.994 371.084,886.828 368.563,892.064 L372.441,894.546 C374.523,889.985 377.173,886.677 380.526,884.71 C385.929,881.539 390.991,882.91 394.088,888.188 L395.618,890.797 C392.551,891.261 388.771,892.644 385.604,894.502 C377.594,899.203 374.311,906.555 377.919,912.703 C381.162,918.23 388.406,919.906 394.927,916.08 z M393.888,911.179 C389.293,913.876 384.811,912.498 382.844,909.145 C380.548,905.233 382.816,900.563 388.405,897.283 C391.075,895.716 394.384,894.526 397.513,894.026 L400.319,898.807 C400.72,899.49 400.894,900.641 400.633,902.046 C400.045,905.312 397.365,909.139 393.888,911.179 z" fill-opacity="0" stroke="#38C400" stroke-width="2"/>
    </g>
    <g>
      <path d="M418.885,894.93 C420.567,899.605 424.413,901.358 429.019,899.7 C431.119,898.944 433.948,897.237 435.62,895.717 L432.941,891.248 C431.96,892.137 430.591,893.012 429.575,893.378 C427.068,894.28 425.017,893.259 424.066,890.617 L409.557,850.309 L403.595,852.454 z" fill="#44EE00"/>
      <path d="M418.885,894.93 C420.567,899.605 424.413,901.358 429.019,899.7 C431.119,898.944 433.948,897.237 435.62,895.717 L432.941,891.248 C431.96,892.137 430.591,893.012 429.575,893.378 C427.068,894.28 425.017,893.259 424.066,890.617 L409.557,850.309 L403.595,852.454 z" fill-opacity="0" stroke="#38C400" stroke-width="2"/>
    </g>
    <g>
      <path d="M456.995,893.231 C464.471,892.103 470.216,887.231 471.81,881.384 L466.173,880.705 C465.166,884.644 461.056,887.812 456.5,888.5 C450.021,889.478 443.766,885.179 442.09,877.932 L472.917,873.28 C472.924,872.842 472.844,871.835 472.694,870.838 C471.19,860.871 462.503,853.007 451.255,854.704 C440.077,856.391 433.567,866.33 435.147,876.795 C436.726,887.261 445.818,894.918 456.995,893.231 z M441.249,873.326 C440.684,866.202 445.343,860.402 451.964,859.403 C458.585,858.404 464.737,862.5 466.452,869.523 z" fill="#44EE00"/>
      <path d="M456.995,893.231 C464.471,892.103 470.216,887.231 471.81,881.384 L466.173,880.705 C465.166,884.644 461.056,887.812 456.5,888.5 C450.021,889.478 443.766,885.179 442.09,877.932 L472.917,873.28 C472.924,872.842 472.844,871.835 472.694,870.838 C471.19,860.871 462.503,853.007 451.255,854.704 C440.077,856.391 433.567,866.33 435.147,876.795 C436.726,887.261 445.818,894.918 456.995,893.231 z M441.249,873.326 C440.684,866.202 445.343,860.402 451.964,859.403 C458.585,858.404 464.737,862.5 466.452,869.523 z" fill-opacity="0" stroke="#38C400" stroke-width="2"/>
    </g>
    <g>
      <path d="M499.226,892.542 C506.739,893.387 513.549,890.168 516.602,884.932 L511.333,882.818 C509.34,886.361 504.551,888.359 499.972,887.844 C493.461,887.111 488.531,881.34 488.788,873.906 L519.768,877.391 C519.888,876.969 520.072,875.976 520.185,874.974 C521.311,864.957 514.956,855.113 503.651,853.842 C492.418,852.578 483.558,860.494 482.375,871.012 C481.192,881.529 487.993,891.278 499.226,892.542 z M489.167,869.24 C490.465,862.213 496.466,857.816 503.12,858.564 C509.774,859.312 514.656,864.861 514.496,872.088 z" fill="#44EE00"/>
      <path d="M499.226,892.542 C506.739,893.387 513.549,890.168 516.602,884.932 L511.333,882.818 C509.34,886.361 504.551,888.359 499.972,887.844 C493.461,887.111 488.531,881.34 488.788,873.906 L519.768,877.391 C519.888,876.969 520.072,875.976 520.185,874.974 C521.311,864.957 514.956,855.113 503.651,853.842 C492.418,852.578 483.558,860.494 482.375,871.012 C481.192,881.529 487.993,891.278 499.226,892.542 z M489.167,869.24 C490.465,862.213 496.466,857.816 503.12,858.564 C509.774,859.312 514.656,864.861 514.496,872.088 z" fill-opacity="0" stroke="#38C400" stroke-width="2"/>
    </g>
    <g>
      <path d="M598.8,874.731 L587.811,893.91 L563.384,879.915 L574.373,860.736 L568.75,857.515 L543.337,901.871 L548.96,905.092 L560.521,884.913 L584.948,898.908 L573.387,919.087 L579.009,922.308 L604.422,877.953 z" fill="#44EE00"/>
      <path d="M598.8,874.731 L587.811,893.91 L563.384,879.915 L574.373,860.736 L568.75,857.515 L543.337,901.871 L548.96,905.092 L560.521,884.913 L584.948,898.908 L573.387,919.087 L579.009,922.308 L604.422,877.953 z" fill-opacity="0" stroke="#38C400" stroke-width="2"/>
    </g>
    <g>
      <path d="M598.313,942.383 C606.055,950.619 617.89,950.068 625.496,942.917 C633.155,935.716 634.386,923.886 626.693,915.703 C619.049,907.572 607.165,908.071 599.506,915.271 C591.9,922.422 590.57,934.147 598.313,942.383 z M603.892,920.042 C609.61,914.666 618.021,914.467 622.706,919.451 C627.44,924.487 626.776,932.82 621.11,938.146 C615.392,943.522 607.034,943.671 602.3,938.635 C597.565,933.599 598.174,925.417 603.892,920.042 z" fill="#44EE00"/>
      <path d="M598.313,942.383 C606.055,950.619 617.89,950.068 625.496,942.917 C633.155,935.716 634.386,923.886 626.693,915.703 C619.049,907.572 607.165,908.071 599.506,915.271 C591.9,922.422 590.57,934.147 598.313,942.383 z M603.892,920.042 C609.61,914.666 618.021,914.467 622.706,919.451 C627.44,924.487 626.776,932.82 621.11,938.146 C615.392,943.522 607.034,943.671 602.3,938.635 C597.565,933.599 598.174,925.417 603.892,920.042 z" fill-opacity="0" stroke="#38C400" stroke-width="2"/>
    </g>
    <g>
      <path d="M620.859,972.744 C623.89,978.471 629.417,982.145 635.93,982.446 L632.022,984.758 C630.053,985.963 629.524,988.197 630.871,990.743 C631.174,991.316 631.672,991.948 632.304,992.836 L637.141,990.277 C636.531,988.97 636.834,988.158 638.235,987.417 L664.582,973.478 L661.619,967.877 L640.808,978.888 C634.673,979.608 629.232,976.867 626.807,972.285 C624.316,967.575 626.443,963.436 633.252,959.833 L652.09,949.867 L649.127,944.266 L629.207,954.805 C620.043,959.654 617.189,965.807 620.859,972.744 z" fill="#44EE00"/>
      <path d="M620.859,972.744 C623.89,978.471 629.417,982.145 635.93,982.446 L632.022,984.758 C630.053,985.963 629.524,988.197 630.871,990.743 C631.174,991.316 631.672,991.948 632.304,992.836 L637.141,990.277 C636.531,988.97 636.834,988.158 638.235,987.417 L664.582,973.478 L661.619,967.877 L640.808,978.888 C634.673,979.608 629.232,976.867 626.807,972.285 C624.316,967.575 626.443,963.436 633.252,959.833 L652.09,949.867 L649.127,944.266 L629.207,954.805 C620.043,959.654 617.189,965.807 620.859,972.744 z" fill-opacity="0" stroke="#38C400" stroke-width="2"/>
    </g>
    <g>
      <path d="M637.382,1014.413 C639.567,1023.218 645.304,1027.803 652.083,1026.121 C658.302,1024.577 659.114,1019.48 659.009,1009.194 C659.003,1002.593 659.182,1000.026 662.606,999.177 C666.799,998.136 669.501,1001.249 670.61,1005.721 C671.599,1009.705 671.26,1014.017 669.298,1017.768 L673.695,1019.644 C675.745,1015.649 676.47,1010.202 675.117,1004.751 C673.192,996.995 667.666,991.764 660.328,993.585 C654.598,995.007 653.84,999.127 653.859,1008.469 C653.916,1015.873 653.683,1019.418 650.049,1020.32 C646.276,1021.256 643.19,1018.387 641.889,1013.146 C640.727,1008.464 641.346,1003.785 643.503,998.725 L638.721,997.093 C636.303,1001.995 635.942,1008.613 637.382,1014.413 z" fill="#44EE00"/>
      <path d="M637.382,1014.413 C639.567,1023.218 645.304,1027.803 652.083,1026.121 C658.302,1024.577 659.114,1019.48 659.009,1009.194 C659.003,1002.593 659.182,1000.026 662.606,999.177 C666.799,998.136 669.501,1001.249 670.61,1005.721 C671.599,1009.705 671.26,1014.017 669.298,1017.768 L673.695,1019.644 C675.745,1015.649 676.47,1010.202 675.117,1004.751 C673.192,996.995 667.666,991.764 660.328,993.585 C654.598,995.007 653.84,999.127 653.859,1008.469 C653.916,1015.873 653.683,1019.418 650.049,1020.32 C646.276,1021.256 643.19,1018.387 641.889,1013.146 C640.727,1008.464 641.346,1003.785 643.503,998.725 L638.721,997.093 C636.303,1001.995 635.942,1008.613 637.382,1014.413 z" fill-opacity="0" stroke="#38C400" stroke-width="2"/>
    </g>
    <g>
      <path d="M641.999,1052.821 C642.02,1060.38 645.997,1066.778 651.547,1069.211 L653.045,1063.735 C649.297,1062.161 646.764,1057.632 646.752,1053.024 C646.734,1046.472 651.904,1040.914 659.318,1040.318 L659.402,1071.494 C659.834,1071.565 660.842,1071.634 661.85,1071.631 C671.93,1071.604 680.982,1064.164 680.951,1052.788 C680.921,1041.484 672.044,1033.588 661.46,1033.616 C650.876,1033.645 641.969,1041.517 641.999,1052.821 z M663.998,1040.161 C671.127,1040.646 676.182,1046.105 676.2,1052.801 C676.217,1059.497 671.264,1064.982 664.066,1065.649 z" fill="#44EE00"/>
      <path d="M641.999,1052.821 C642.02,1060.38 645.997,1066.778 651.547,1069.211 L653.045,1063.735 C649.297,1062.161 646.764,1057.632 646.752,1053.024 C646.734,1046.472 651.904,1040.914 659.318,1040.318 L659.402,1071.494 C659.834,1071.565 660.842,1071.634 661.85,1071.631 C671.93,1071.604 680.982,1064.164 680.951,1052.788 C680.921,1041.484 672.044,1033.588 661.46,1033.616 C650.876,1033.645 641.969,1041.517 641.999,1052.821 z M663.998,1040.161 C671.127,1040.646 676.182,1046.105 676.2,1052.801 C676.217,1059.497 671.264,1064.982 664.066,1065.649 z" fill-opacity="0" stroke="#38C400" stroke-width="2"/>
    </g>
  </g>
  <g id="object_names" display="none">
    <text transform="matrix(1, 0, 0, 1, 1222.326, 1069.601)">
      <tspan x="-97.164" y="12.5" font-family="Raleway-Medium" font-size="36" fill="#2B2B2B">Family Mart</tspan>
    </text>
    <text transform="matrix(1, 0, 0, 1, 2112.018, 1296)">
      <tspan x="-106.596" y="-8.5" font-family="Raleway-Medium" font-size="36" fill="#2B2B2B">Blue Canyon</tspan>
      <tspan x="-107.982" y="33.5" font-family="Raleway-Medium" font-size="36" fill="#2B2B2B">Country club</tspan>
    </text>
    <text transform="matrix(1, 0, 0, 1, 1806.276, 1013.682)">
      <tspan x="-127.296" y="-8.5" font-family="Raleway-Regular" font-size="36" fill="#333333">Wat Mongkhon</tspan>
      <tspan x="-84.528" y="33.5" font-family="Raleway-Regular" font-size="36" fill="#333333"> Wanaram</tspan>
    </text>
    <text transform="matrix(0, -1, 1, 0, 2213.559, 825.006)">
      <tspan x="-94.11" y="20.5" font-family="Raleway-Regular" font-size="60" fill="#001799">Airport</tspan>
    </text>
  </g>
  <g id="Names">
    <text transform="matrix(1, 0, 0, 1, 717.046, 594.421)">
      <tspan x="-69.075" y="-13" font-family="Thonburi" font-size="48" fill="#001799">Indigo</tspan>
      <tspan x="-56.006" y="53" font-family="Thonburi" font-size="48" fill="#001799">Pearl</tspan>
    </text>
    <text transform="matrix(1, 0, 0, 1, 1631.43, 569.546)">
      <tspan x="-62.644" y="20" font-family="Thonburi" font-size="48" fill="#001799">Dewa</tspan>
    </text>
    <text transform="matrix(1, 0, 0, 1, 1170.548, 1022.329)">
      <tspan x="-73.003" y="-13" font-family="Thonburi" font-size="48" fill="#001799">Family</tspan>
      <tspan x="-52.106" y="53" font-family="Thonburi" font-size="48" fill="#001799">Mart</tspan>
    </text>
    <text transform="matrix(1, 0, 0, 1, 2295.744, 1466)">
      <tspan x="-141.891" y="-46" font-family="Thonburi" font-size="48" fill="#001799">Blue Canyon</tspan>
      <tspan x="-91.828" y="20" font-family="Thonburi" font-size="48" fill="#001799">Counrty </tspan>
      <tspan x="-47.362" y="86" font-family="Thonburi" font-size="48" fill="#001799">club</tspan>
    </text>
    <text transform="matrix(1, 0, 0, 1, 1851.161, 1036.182)">
      <tspan x="-172.181" y="-13" font-family="Thonburi" font-size="48" fill="#001799">Wat Mongkhon</tspan>
      <tspan x="-107.287" y="53" font-family="Thonburi" font-size="48" fill="#001799">Wanaram</tspan>
    </text>
    <text transform="matrix(1, 0, 0, 1, 2116.858, 810.415)"/>
  </g>
</svg>
