<?xml version="1.0" encoding="UTF-8"?>
<!DOCTYPE svg PUBLIC "-//W3C//DTD SVG 1.1//EN" "http://www.w3.org/Graphics/SVG/1.1/DTD/svg11.dtd">
<svg version="1.1" xmlns="http://www.w3.org/2000/svg" xmlns:xlink="http://www.w3.org/1999/xlink" x="0" y="0" width="2560" height="1600" viewBox="0, 0, 2560, 1600">
  <defs>
    <clipPath id="Clip_1">
      <path d="M24.275,9.099 L2519.476,9.099 L2519.476,1599.026 L24.275,1599.026 z M2457.476,72.099 L2457.476,1536.026 L86.275,1536.026 L86.275,72.099 L2457.476,72.099 z M2462.784,22.099 L80.966,22.099 C56.364,22.099 36.275,41.9 36.275,66.508 L36.275,1541.616 C36.275,1566.225 56.364,1586.026 80.966,1586.026 L2462.784,1586.026 C2487.386,1586.026 2507.476,1566.225 2507.476,1541.616 L2507.476,66.508 C2507.476,41.9 2487.386,22.099 2462.784,22.099 z"/>
    </clipPath>
    <filter id="Shadow_2">
      <feGaussianBlur in="SourceAlpha" stdDeviation="4.5"/>
      <feOffset dx="2" dy="3" result="offsetblur"/>
      <feFlood flood-color="#000000"/>
      <feComposite in2="offsetblur" operator="in"/>
    </filter>
  </defs>
  <g id="Background">
    <path d="M1622.302,1218.883 L1622.969,1218.883 L1622.969,1218.883 L1622.302,1218.883 z" fill="#FFFFFF"/>
    <g>
      <path d="M82.349,47.099 L2464.109,47.099 C2475.343,47.099 2484.45,56.053 2484.45,67.099 L2484.45,1541.026 C2484.45,1552.072 2475.343,1561.026 2464.109,1561.026 L82.349,1561.026 C71.115,1561.026 62.008,1552.072 62.008,1541.026 L62.008,67.099 C62.008,56.053 71.115,47.099 82.349,47.099 z" fill="#FFFFFF"/>
      <path d="M82.349,47.099 L2464.109,47.099 C2475.343,47.099 2484.45,56.053 2484.45,67.099 L2484.45,1541.026 C2484.45,1552.072 2475.343,1561.026 2464.109,1561.026 L82.349,1561.026 C71.115,1561.026 62.008,1552.072 62.008,1541.026 L62.008,67.099 C62.008,56.053 71.115,47.099 82.349,47.099 z" fill-opacity="0" stroke="#FFFFFF" stroke-width="1"/>
    </g>
  </g>
  <g id="Distance">
    <g>
      <path d="M488.441,1414.779 L2401.969,1414.779" fill-opacity="0" stroke="#AA01EE" stroke-width="5"/>
      <path d="M488.441,1409.379 L477.641,1409.379 L477.641,1420.179 L488.441,1420.179 z" fill="#AA01EE" fill-opacity="1" stroke="#AA01EE" stroke-width="5" stroke-opacity="1"/>
      <path d="M2401.969,1420.179 L2412.769,1420.179 L2412.769,1409.379 L2401.969,1409.379 z" fill="#AA01EE" fill-opacity="1" stroke="#AA01EE" stroke-width="5" stroke-opacity="1"/>
    </g>
  </g>
  <g id="car_background">
    <path d="M1252.959,1357.905 L1553.495,1357.905 C1562.492,1357.905 1569.786,1364.431 1569.786,1372.482 L1569.786,1459.785 C1569.786,1467.835 1562.492,1474.361 1553.495,1474.361 L1252.959,1474.361 C1243.962,1474.361 1236.668,1467.835 1236.668,1459.785 L1236.668,1372.482 C1236.668,1364.431 1243.962,1357.905 1252.959,1357.905 z" fill="#FFFFFF"/>
  </g>
  <g id="car6min">
    <path d="M1524.376,1375.015 C1528.884,1375.015 1533.745,1378.364 1535.163,1382.44 L1540.77,1398.487 L1553.066,1398.487 C1555.328,1398.487 1557.164,1400.248 1557.164,1402.399 C1557.164,1404.567 1555.328,1406.311 1553.066,1406.311 L1543.508,1406.311 L1546.229,1414.135 L1553.066,1414.135 C1555.32,1414.135 1557.164,1415.896 1557.164,1418.047 L1557.164,1441.52 C1557.164,1443.671 1555.32,1445.432 1553.066,1445.432 L1548.967,1445.432 L1548.967,1461.08 C1548.967,1465.407 1545.303,1468.904 1540.77,1468.904 L1532.573,1468.904 C1528.04,1468.904 1524.376,1465.407 1524.376,1461.08 L1524.376,1445.432 L1475.193,1445.432 L1475.193,1461.08 C1475.193,1465.407 1471.529,1468.904 1466.996,1468.904 L1458.799,1468.904 C1454.266,1468.904 1450.602,1465.407 1450.602,1461.08 L1450.602,1445.432 L1446.504,1445.432 C1444.249,1445.432 1442.405,1443.671 1442.405,1441.52 L1442.405,1418.047 C1442.405,1415.896 1444.249,1414.135 1446.504,1414.135 L1453.34,1414.135 L1456.061,1406.311 L1446.504,1406.311 C1444.241,1406.311 1442.405,1404.567 1442.405,1402.399 C1442.405,1400.248 1444.241,1398.487 1446.504,1398.487 L1458.799,1398.487 L1464.406,1382.44 C1465.824,1378.364 1470.685,1375.015 1475.193,1375.015 L1524.376,1375.015 z M1532.573,1421.96 C1528.04,1421.96 1524.376,1425.457 1524.376,1429.784 C1524.376,1434.11 1528.04,1437.608 1532.573,1437.608 C1537.106,1437.608 1540.77,1434.11 1540.77,1429.784 C1540.77,1425.457 1537.106,1421.96 1532.573,1421.96 z M1516.179,1429.784 L1483.391,1429.784 L1483.391,1437.608 L1516.179,1437.608 L1516.179,1429.784 z M1466.996,1421.96 C1462.463,1421.96 1458.799,1425.457 1458.799,1429.784 C1458.799,1434.11 1462.463,1437.608 1466.996,1437.608 C1471.529,1437.608 1475.193,1434.11 1475.193,1429.784 C1475.193,1425.457 1471.529,1421.96 1466.996,1421.96 z M1491.588,1382.839 L1475.193,1382.839 C1474.21,1382.839 1472.488,1384.028 1472.185,1384.92 L1461.971,1414.135 L1537.59,1414.135 L1527.384,1384.92 C1527.081,1384.028 1525.36,1382.839 1524.376,1382.839 L1507.982,1382.839 L1507.982,1386.751 C1507.982,1388.918 1506.146,1390.663 1503.883,1390.663 L1495.686,1390.663 C1493.424,1390.663 1491.588,1388.918 1491.588,1386.751 L1491.588,1382.839 z" fill="#AA00EE"/>
    <text transform="matrix(1, 0, 0, 1, 1338.942, 1416.731)">
      <tspan x="-96.609" y="25" font-family="Thonburi" font-size="60" fill="#AA01EE">6 mins</tspan>
    </text>
  </g>
  <g id="roads">
    <path d="M84.5,168.5 L2460.5,168.5" fill-opacity="0" stroke="#80C8FF" stroke-width="200"/>
    <path d="M84.5,263.5 L2460.5,264.5" fill-opacity="0" stroke="#FFF3AA" stroke-width="100"/>
    <path d="M2460.5,408.5 L84.5,407.5" fill-opacity="0" stroke="#86FF55" stroke-width="200"/>
    <path d="M84.5,492.5 L2460.5,492.5" fill-opacity="0" stroke="#AAAAAA" stroke-width="70"/>
    <path d="M82.5,1140.5 L2458.5,1140.5" fill-opacity="0" stroke="#AAAAAA" stroke-width="90"/>
    <path d="M480.5,1068.5 L480.5,1128.5" fill-opacity="0" stroke="#AAAAAA" stroke-width="30"/>
    <path d="M936.049,672.711 L936.5,1128.5" fill-opacity="0" stroke="#AAAAAA" stroke-width="40"/>
    <path d="M2428,1117.883 L2428,1061.883" fill-opacity="0" stroke="#AAAAAA" stroke-width="20"/>
    <path d="M2260.397,526.464 L2260.397,1095.202" fill-opacity="0" stroke="#AAAAAA" stroke-width="50"/>
    <path d="M1946.236,1176.451 L1946.236,1263.116" fill-opacity="0" stroke="#AAAAAA" stroke-width="50"/>
    <path d="M1604.993,521.047 L1604.993,1100.619" fill-opacity="0" stroke="#AAAAAA" stroke-width="40"/>
    <path d="M2020.36,1176.451 L2020.36,1263.116" fill-opacity="0" stroke="#AAAAAA" stroke-width="50"/>
  </g>
  <g id="Beach_Text">
    <text transform="matrix(1, 0, 0, 1, 582.031, 152.073)">
      <tspan x="-485.988" y="23.845" font-family="Thonburi" font-size="72" fill="#2B2B2B">Andaman Sea</tspan>
    </text>
    <text transform="matrix(1, 0, 0, 1, 497.358, 263.54)">
      <tspan x="-398.606" y="28.813" font-family="Thonburi" font-size="72" fill="#2B2B2B">Nai Yang Beach</tspan>
    </text>
    <text transform="matrix(1, 0, 0, 1, 578.432, 406.397)">
      <tspan x="-479.681" y="5.997" font-family="Thonburi" font-size="72" fill="#2B2B2B">Sirinat National Park</tspan>
    </text>
  </g>
  <g id="Frame">
    <g>
      <path d="M2462.784,22.099 C2487.386,22.099 2507.476,41.9 2507.476,66.508 L2507.476,1541.616 C2507.476,1566.225 2487.386,1586.026 2462.784,1586.026 L80.966,1586.026 C56.364,1586.026 36.275,1566.225 36.275,1541.616 L36.275,66.508 C36.275,41.9 56.364,22.099 80.966,22.099 L2462.784,22.099 z M2457.476,72.099 L86.275,72.099 L86.275,1536.026 L2457.476,1536.026 L2457.476,72.099 z" clip-path="url(#Clip_1)" filter="url(#Shadow_2)" fill="rgba(0,0,0,0.75)"/>
      <path d="M80.966,47.099 L2462.784,47.099 C2473.659,47.099 2482.476,55.789 2482.476,66.508 L2482.476,1541.616 C2482.476,1552.336 2473.659,1561.026 2462.784,1561.026 L80.966,1561.026 C70.091,1561.026 61.275,1552.336 61.275,1541.616 L61.275,66.508 C61.275,55.789 70.091,47.099 80.966,47.099 z" fill-opacity="0" stroke="#FFFFFF" stroke-width="50"/>
    </g>
  </g>
  <g id="Hotels">
    <text transform="matrix(1, 0, 0, 1, 1621.841, 546.55)" display="none">
      <tspan x="-47.984" y="12.5" font-family="Raleway-Regular" font-size="36" fill="#2B2B2B">Dewa</tspan>
    </text>
    <g>
      <text transform="matrix(1, 0, 0, 1, 813.345, 549.114)" display="none">
        <tspan x="-52.268" y="12.5" font-family="Raleway-Regular" font-size="36" fill="#202020">Indigo </tspan>
      </text>
      <text transform="matrix(1, 0, 0, 1, 813.345, 591.114)" display="none">
        <tspan x="-43.178" y="12.5" font-family="Raleway-Regular" font-size="36" fill="#202020">Pearl</tspan>
      </text>
    </g>
    <text transform="matrix(1, 0, 0, 1, 1743.312, 574.105)">
      <tspan x="-101.06" y="22.77" font-family="Thonburi" font-size="60" fill="#011A99">Dewa</tspan>
    </text>
    <g>
      <text transform="matrix(1, 0, 0, 1, 958.631, 607.668)">
        <tspan x="-99.366" y="-28.209" font-family="Thonburi" font-size="60" fill="#001799">Indigo</tspan>
        <tspan x="-99.366" y="54.791" font-family="Thonburi" font-size="60" fill="#011A99">Pearl</tspan>
        <tspan x="40.65" y="54.791" font-family="Thonburi" font-size="48" fill="#001799"> </tspan>
      </text>
    </g>
  </g>
  <g id="Symbols">
    <path d="M960.278,990.681 C964.26,990.681 967.498,993.466 967.498,996.904 L967.163,998.306 L974.726,1002.641 L1069.042,1013.488 L1057.257,1057.911 L997.513,1057.911 L992.771,1070.788 C995.123,1072.324 996.843,1074.54 997.453,1077.12 L1035.283,1077.12 C1036.549,1072.536 1041.306,1069.116 1047.023,1069.116 C1053.7,1069.116 1059.119,1073.778 1059.119,1079.521 C1059.119,1085.265 1053.7,1089.926 1047.023,1089.926 C1041.99,1089.926 1037.68,1087.282 1035.864,1083.523 L996.656,1083.523 C994.751,1087.288 990.389,1089.926 985.297,1089.926 C978.448,1089.926 972.895,1085.149 972.895,1079.259 C972.895,1073.362 978.448,1068.585 985.297,1068.585 L985.766,1068.623 L989.704,1057.911 L985.297,1057.911 L970.573,1007.962 L961.707,1002.865 L960.278,1003.115 C956.288,1003.115 953.042,1000.336 953.042,996.904 C953.042,993.466 956.288,990.681 960.278,990.681 z" fill="#001799"/>
    <path d="M483.898,852.818 L541.94,886.702 L541.94,856.173 L581.726,856.173 L581.726,909.925 L637.403,942.443 L613.25,966.607 L596.742,956.962 L596.742,1068 L371.034,1068 L371.034,956.962 L354.507,966.607 L330.373,942.427 L483.898,852.818 z M483.898,893.219 L393.161,946.209 L393.161,1051.096 L444.111,1051.096 L444.111,986.867 L523.684,986.867 L523.684,1051.096 L574.634,1051.096 L574.634,946.209 L483.898,893.219 z" fill="#8CC400"/>
    <path d="M2425.975,882.73 C2430.618,885.861 2425.353,903.683 2422.05,908.579 L2410,926.442 L2427.105,978.409 C2427.502,979.569 2427.324,980.875 2426.612,981.932 L2426.161,982.598 C2425.483,983.604 2424.402,984.271 2423.239,984.369 C2422.066,984.49 2420.937,984.042 2420.177,983.178 L2393.252,951.272 L2374.836,978.576 L2380.203,994.346 C2380.65,995.54 2380.483,996.909 2379.752,997.993 L2379.443,998.45 C2378.756,999.469 2377.642,1000.132 2376.454,1000.224 C2375.262,1000.323 2374.127,999.842 2373.383,998.931 L2359.918,980.663 L2337.88,975.108 C2336.756,974.758 2335.881,973.892 2335.531,972.744 C2335.166,971.615 2335.365,970.333 2336.052,969.314 L2336.359,968.857 C2337.094,967.767 2338.302,967.099 2339.576,967.066 L2356.252,966.069 L2374.682,938.746 L2335.013,925.734 C2333.928,925.354 2333.089,924.475 2332.762,923.342 C2332.417,922.226 2332.631,920.974 2333.31,919.968 L2333.76,919.302 C2334.472,918.245 2335.615,917.591 2336.841,917.524 L2391.43,913.917 L2403.479,896.053 C2406.781,891.157 2421.333,879.598 2425.975,882.73 z" fill="#001699"/>
    <g>
      <path d="M760.392,199.542 C757.667,199.542 755.039,199.078 752.712,198.292 C750.307,197.449 747.594,196.961 744.778,196.961 C741.954,196.961 739.245,197.449 736.843,198.292 C734.501,199.078 731.888,199.542 729.148,199.542 C726.423,199.542 723.795,199.078 721.468,198.292 C719.043,197.449 716.35,196.961 713.534,196.961 C710.71,196.961 708.001,197.449 705.615,198.292 C703.257,199.078 700.628,199.542 697.904,199.542 C695.16,199.542 692.551,199.078 690.208,198.292 C687.799,197.449 685.09,196.961 682.29,196.961 C679.45,196.961 676.741,197.449 674.355,198.292 C672.013,199.078 669.384,199.542 666.644,199.542 C663.912,199.542 661.283,199.078 658.941,198.292 C656.535,197.449 653.83,196.961 651.03,196.961 C648.206,196.961 645.497,197.449 643.111,198.292 C640.753,199.078 638.14,199.542 635.392,199.542 L635.392,190.908 C638.136,190.908 640.753,190.444 643.111,189.658 C645.501,188.851 648.206,188.359 651.03,188.359 C653.83,188.359 656.539,188.848 658.941,189.658 C661.283,190.444 663.912,190.908 666.644,190.908 C669.384,190.908 672.013,190.444 674.355,189.658 C676.745,188.851 679.45,188.359 682.29,188.359 C685.09,188.359 687.799,188.848 690.208,189.658 C692.551,190.444 695.156,190.908 697.904,190.908 C700.628,190.908 703.257,190.444 705.615,189.658 C708.005,188.851 710.71,188.359 713.534,188.359 C716.35,188.359 719.043,188.848 721.468,189.658 C723.795,190.444 726.423,190.908 729.148,190.908 C731.888,190.908 734.501,190.444 736.843,189.658 C739.249,188.851 741.954,188.359 744.778,188.359 C747.594,188.359 750.311,188.848 752.712,189.658 C755.039,190.444 757.667,190.908 760.392,190.908 L760.392,199.542 z" fill="#001CC4"/>
      <path d="M710.216,98.542 L710.216,163.482 L639.061,163.482 z" fill="#001CC4"/>
      <path d="M716.967,113.537 C737.903,120.81 762.773,140.216 759.523,163.492 L716.967,163.492 L716.967,113.537 z" fill="#001CC4"/>
      <path d="M750.514,168.18 L731.096,168.18 L655.873,168.18 L655.873,181.018 C656.925,181.232 657.973,181.458 658.944,181.815 C661.287,182.578 663.915,183.042 666.64,183.042 C669.384,183.042 672.017,182.578 674.359,181.815 C676.749,180.973 679.454,180.485 682.294,180.485 C685.11,180.485 687.803,180.973 690.204,181.815 C692.547,182.578 695.16,183.042 697.908,183.042 C700.632,183.042 703.261,182.578 705.619,181.815 C708.009,180.973 710.714,180.485 713.538,180.485 C716.354,180.485 719.047,180.973 721.472,181.815 C723.799,182.578 726.42,183.042 729.152,183.042 C729.674,183.042 730.172,182.95 730.678,182.896 C730.725,182.896 730.741,182.95 730.793,182.95 C731.128,182.95 731.375,182.828 731.709,182.828 C732.331,182.768 732.968,182.724 733.593,182.601 C739.186,181.747 742.802,178.484 742.802,178.484 L753.684,168.18 L750.514,168.18 z" fill="#001CC4"/>
    </g>
    <g>
      <path d="M1030.122,328 L1051.682,351.5 L1040.902,351.5 L1062.463,375 L1046.292,375 L1073.243,404.375 L1040.902,404.375 L1040.902,422 L1019.341,422 L1019.341,404.375 L987,404.375 L1013.951,375 L997.78,375 L1019.341,351.5 L1008.561,351.5 L1030.122,328 z" fill="#009916"/>
      <path d="M1181.404,332 C1182.614,332 1183.752,332.66 1184.407,333.725 C1185.062,334.812 1185.14,336.177 1184.628,337.332 L1183.667,339.5 L1173.512,362.555 L1177.732,370.76 C1180.031,370.01 1182.422,369.5 1184.948,369.5 C1198.703,369.5 1209.854,381.245 1209.854,395.75 C1209.854,410.255 1198.703,422 1184.948,422 C1171.193,422 1160.042,410.255 1160.042,395.75 C1160.042,386.638 1164.461,378.628 1171.15,373.91 L1169.713,371.158 L1165.465,362.982 L1164.959,362 L1139.101,362 C1136.14,362 1133.522,364.01 1132.611,366.965 L1131.095,371.84 C1139.748,375.957 1145.811,385.085 1145.811,395.75 C1145.811,410.255 1134.66,422 1120.906,422 C1107.151,422 1096,410.255 1096,395.75 C1096,381.245 1107.151,369.5 1120.906,369.5 C1122.044,369.5 1123.133,369.702 1124.243,369.853 L1128.213,357.08 C1128.69,355.543 1130.049,354.5 1131.594,354.5 L1169.201,354.5 L1175.818,339.5 L1163.601,339.5 C1161.636,339.5 1160.042,337.827 1160.042,335.75 C1160.042,333.688 1161.636,332 1163.601,332 L1181.404,332 z M1184.948,377 C1183.653,377 1182.401,377.158 1181.184,377.443 L1189.936,394.415 C1190.399,395.307 1190.491,396.365 1190.199,397.332 C1189.908,398.3 1189.253,399.103 1188.392,399.56 L1188.378,399.575 C1186.67,400.467 1184.599,399.777 1183.674,398.022 L1174.609,380.562 C1170.119,383.975 1167.158,389.495 1167.158,395.75 C1167.158,406.092 1175.135,414.5 1184.948,414.5 C1194.761,414.5 1202.738,406.092 1202.738,395.75 C1202.738,385.408 1194.761,377 1184.948,377 z M1120.906,377 C1111.093,377 1103.116,385.408 1103.116,395.75 C1103.116,406.092 1111.093,414.5 1120.906,414.5 C1130.718,414.5 1138.695,406.092 1138.695,395.75 C1138.695,388.438 1134.667,382.152 1128.847,379.062 L1125.203,390.799 C1124.905,391.737 1124.271,392.525 1123.425,392.982 C1122.578,393.418 1121.603,393.492 1120.706,393.185 C1118.849,392.525 1117.839,390.418 1118.443,388.452 L1121.973,377.12 C1121.617,377.09 1121.275,377 1120.906,377 z M1142.274,339.5 L1120.906,339.5 C1118.941,339.5 1117.348,341.188 1117.348,343.25 C1117.348,345.327 1118.941,347 1120.906,347 L1131.579,347 C1136.93,347 1140.083,345.08 1143.228,342.125 C1143.662,341.712 1143.811,341.052 1143.598,340.467 C1143.392,339.883 1142.865,339.5 1142.274,339.5 z" fill="#009916"/>
      <g>
        <path d="M1263.83,346.151 C1269.134,346.151 1273.43,342.972 1273.43,339.066 C1273.43,335.16 1269.134,332 1263.83,332 C1258.519,332 1254.204,335.157 1254.204,339.066 C1254.204,342.975 1258.523,346.151 1263.83,346.151" fill="#009916"/>
        <path d="M1247.59,347.32 C1247.954,346.233 1247.023,345.147 1245.565,344.874 L1237.572,343.453 C1236.06,343.202 1234.577,343.849 1234.242,344.938 L1227.51,365.444 C1227.139,366.53 1228.041,367.616 1229.528,367.889 L1237.572,369.31 C1239.011,369.583 1240.524,368.914 1240.858,367.825 L1247.59,347.32 z" fill="#009916"/>
        <path d="M1284.553,420.243 C1284.553,420.286 1284.524,420.326 1284.524,420.348 C1284.524,421.247 1285.51,421.977 1286.731,421.977 C1287.854,421.977 1288.781,421.351 1288.927,420.557 L1305.059,356.156 L1305.059,356.03 C1305.059,355.153 1304.092,354.42 1302.871,354.42 C1301.769,354.42 1300.911,355.046 1300.675,355.84 L1284.553,420.243 z" fill="#009916"/>
        <path d="M1230.889,416.023 C1230.805,416.357 1230.776,416.702 1230.776,417.026 C1230.776,419.785 1233.786,422 1237.534,422 C1240.602,422 1243.194,420.496 1244,418.447 L1255.622,383.057 L1266.698,418.236 C1267.414,420.408 1270.071,421.997 1273.23,421.997 C1276.978,421.997 1279.988,419.782 1279.988,417.023 C1279.988,416.646 1279.93,416.293 1279.846,415.937 L1264.644,369.198 L1265.931,365.08 L1266.931,368.321 C1267.832,370.432 1270.453,370.64 1270.453,370.64 L1286.095,373.567 C1286.4,373.61 1286.72,373.629 1287.025,373.629 C1289.588,373.629 1291.667,372.125 1291.667,370.242 C1291.667,368.631 1290.155,367.274 1288.116,366.919 L1274.561,364.409 L1270.842,353.289 C1269.083,347.082 1261.009,347.227 1261.009,347.227 C1253.179,347.079 1251.212,353.142 1251.212,353.142 L1230.889,416.023 z" fill="#009916"/>
      </g>
      <path d="M1366.7,381.857 L1393.368,381.857 L1384.582,355.68 L1375.484,355.68 L1366.7,381.857 z M1351.798,355.68 L1351.798,346 L1410.202,346 L1410.202,355.68 L1395.455,355.68 L1404.241,381.857 L1426,381.857 L1426,391.524 L1407.519,391.524 L1417.799,422 L1407.823,422 L1397.543,391.524 L1364.321,391.524 L1354.108,422 L1344.132,422 L1354.329,391.524 L1336,391.524 L1336,381.857 L1357.602,381.857 L1366.402,355.68 L1351.798,355.68 z" fill="#009916"/>
    </g>
    <g>
      <path d="M911.792,196.042 C909.446,196.042 907.21,195.387 905.219,194.271 C903.159,193.125 900.838,192.433 898.427,192.433 C895.996,192.433 893.678,193.121 891.622,194.271 C889.631,195.387 887.394,196.042 885.049,196.042 C882.703,196.042 880.467,195.387 878.476,194.271 C876.386,193.125 874.067,192.433 871.684,192.433 C869.253,192.433 866.935,193.121 864.893,194.271 C862.888,195.387 860.624,196.042 858.306,196.042 C855.957,196.042 853.723,195.387 851.698,194.271 C849.639,193.125 847.324,192.433 844.941,192.433 C842.51,192.433 840.192,193.121 838.149,194.271 C836.145,195.387 833.881,196.042 831.532,196.042 C829.213,196.042 826.95,195.387 824.959,194.271 C822.899,193.125 820.584,192.433 818.167,192.433 C815.77,192.433 813.452,193.121 811.41,194.271 C809.371,195.387 807.141,196.042 804.792,196.042 L804.792,183.881 C807.141,183.881 809.374,183.226 811.41,182.143 C813.455,180.964 815.77,180.276 818.167,180.276 C820.584,180.276 822.903,180.964 824.959,182.143 C826.95,183.226 829.213,183.881 831.532,183.881 C833.881,183.881 836.148,183.226 838.149,182.143 C840.195,180.964 842.51,180.276 844.941,180.276 C847.324,180.276 849.642,180.964 851.698,182.143 C853.723,183.226 855.953,183.881 858.306,183.881 C860.624,183.881 862.888,183.226 864.893,182.143 C866.938,180.964 869.253,180.276 871.684,180.276 C874.067,180.276 876.386,180.964 878.476,182.143 C880.467,183.226 882.703,183.881 885.049,183.881 C887.394,183.881 889.631,183.226 891.622,182.143 C893.681,180.964 895.996,180.276 898.427,180.276 C900.838,180.276 903.163,180.964 905.219,182.143 C907.21,183.226 909.446,183.881 911.792,183.881 L911.792,196.042 z" fill="#001CC4"/>
      <path d="M896.29,161.671 C903.326,161.671 909.027,154.621 909.027,145.968 C909.027,137.315 903.326,130.299 896.29,130.299 C889.253,130.299 883.552,137.315 883.552,145.968 C883.552,154.621 888.745,161.671 896.29,161.671" fill="#001CC4"/>
      <path d="M822.163,170.494 C823.148,170.788 824.086,171.216 824.959,171.707 C826.963,172.823 829.227,173.478 831.545,173.478 C833.877,173.478 836.141,172.823 838.146,171.707 C840.198,170.561 842.513,169.84 844.937,169.84 C847.341,169.84 849.659,170.561 851.702,171.707 C853.72,172.823 855.97,173.478 858.302,173.478 C860.621,173.478 862.884,172.823 864.889,171.707 C866.942,170.561 869.257,169.84 871.681,169.84 C874.084,169.84 876.403,170.561 878.472,171.707 C880.463,172.823 882.7,173.478 885.045,173.478 C886.75,173.478 888.4,173.117 889.958,172.525 L868.721,125.349 L893.419,119.81 C897.036,118.958 899.678,115.45 899.678,110.959 C899.678,106.008 896.388,102.042 892.393,102.042 C892.106,102.042 891.834,102.042 891.574,102.076 L853.43,110.632 C850.747,111.387 847.198,116.205 849.216,122.139 C849.329,122.466 849.434,122.76 849.544,123.091 L859.506,145.219 L822.163,170.494 z" fill="#001CC4"/>
    </g>
    <g>
      <path d="M891.049,218.5 L895.521,218.5 L895.521,234.874 L891.049,234.874 z" fill="#EECC00"/>
      <path d="M890.784,298.126 L895.256,298.126 L895.256,314.5 L890.784,314.5 z" fill="#EECC00"/>
      <path d="M926.251,263.336 L943.249,263.336 L943.249,267.632 L926.251,267.632 z" fill="#EECC00"/>
      <path d="M843.249,263.069 L860.247,263.069 L860.247,267.365 L843.249,267.365 z" fill="#EECC00"/>
      <path d="M866.668,247.56 L864.5,251.328 L849.643,243.397 L851.811,239.629 z" fill="#EECC00"/>
      <path d="M880.565,237.221 L876.778,239.513 L867.729,225.64 L871.516,223.348 z" fill="#EECC00"/>
      <path d="M920.314,306.945 L916.449,309.091 L907.962,294.905 L911.827,292.759 z" fill="#EECC00"/>
      <path d="M937.942,287.669 L935.774,291.437 L920.895,283.495 L923.063,279.727 z" fill="#EECC00"/>
      <path d="M875.117,292.558 L879.029,294.646 L870.784,308.978 L866.872,306.89 z" fill="#EECC00"/>
      <path d="M862.6,278.648 L864.949,282.301 L850.499,290.925 L848.149,287.272 z" fill="#EECC00"/>
      <path d="M934.856,240.471 L937.092,244.202 L922.372,252.39 L920.135,248.66 z" fill="#EECC00"/>
      <path d="M915.192,223.561 L919.099,225.658 L910.83,239.95 L906.923,237.853 z" fill="#EECC00"/>
      <path d="M865.684,266.448 C865.684,251.746 878.041,239.844 893.303,239.844 C908.541,239.844 920.898,251.746 920.898,266.448 C920.898,281.137 908.541,293.04 893.303,293.04 C878.041,293.052 865.684,281.137 865.684,266.448" fill="#EECC00"/>
    </g>
    <path d="M215.777,1308.276 C220.141,1308.276 223.712,1311.491 223.712,1315.404 C223.712,1319.331 220.141,1322.531 215.777,1322.531 L152.296,1322.531 C147.932,1322.531 144.361,1319.331 144.361,1315.404 C144.361,1311.491 147.932,1308.276 152.296,1308.276 L215.777,1308.276 z M108.657,1272.639 C110.847,1272.639 112.624,1274.243 112.624,1276.203 C112.624,1278.177 110.847,1279.766 108.657,1279.766 C106.459,1279.766 104.689,1278.177 104.689,1276.203 C104.689,1274.243 106.459,1272.639 108.657,1272.639 z M176.105,1272.639 L176.105,1286.894 L168.17,1286.894 L168.17,1272.639 L176.105,1272.639 z M191.975,1265.511 C205.099,1265.511 215.78,1275.105 215.78,1286.894 C215.78,1289.317 215.296,1291.712 214.328,1294.021 L184.04,1294.021 L184.04,1265.804 C187.031,1265.64 190.309,1265.511 191.975,1265.511 z M164.202,1244.129 C162.004,1244.129 160.235,1245.733 160.235,1247.693 L160.235,1265.511 L152.3,1265.511 L144.365,1272.639 L119.829,1272.639 C118.187,1268.505 113.831,1265.511 108.657,1265.511 C102.079,1265.511 96.754,1270.301 96.754,1276.203 C96.754,1282.104 102.079,1286.894 108.657,1286.894 C113.18,1286.894 117.068,1284.599 119.084,1281.256 L152.3,1301.149 L219.311,1301.149 C222.041,1296.944 223.715,1292.111 223.715,1286.894 C223.715,1271.149 209.503,1258.384 191.975,1258.384 C189.213,1258.384 178.652,1258.804 176.105,1259.402 L176.105,1265.511 L168.17,1265.511 L168.17,1247.693 C168.17,1245.733 166.392,1244.129 164.202,1244.129 z M142.036,1229.874 L104.685,1229.874 C100.298,1229.874 96.751,1233.06 96.75,1237.001 C96.751,1240.943 100.298,1244.129 104.685,1244.129 L148.328,1244.129 C149.932,1244.129 151.384,1243.266 151.994,1241.926 C152.606,1240.608 152.265,1239.061 151.137,1238.042 L142.036,1229.874 z M215.777,1229.874 L172.134,1229.874 C170.531,1229.874 169.079,1230.751 168.468,1232.076 C167.857,1233.409 168.198,1234.942 169.333,1235.961 L178.427,1244.129 L215.777,1244.129 C220.165,1244.129 223.712,1240.943 223.712,1237.001 C223.712,1233.06 220.165,1229.874 215.777,1229.874 z" fill="#001799"/>
  </g>
  <g id="Road_names">
    <text transform="matrix(1, 0, 0, 1, 2280.501, 1143.217)">
      <tspan x="-197.476" y="23.5" font-family="Thonburi" font-size="60" fill="#2B2B2B">Route 4031</tspan>
    </text>
    <text transform="matrix(1, 0, 0, 1, 2280.501, 501.125)">
      <tspan x="-195.332" y="13.5" font-family="Thonburi" font-size="60" fill="#2B2B2B">Route 4027</tspan>
    </text>
    <text transform="matrix(1, 0, 0, 1, 1985.152, 1303.74)">
      <tspan x="-174.363" y="25" font-family="Thonburi" font-size="60" fill="#2B2B2B">Route 4026</tspan>
    </text>
  </g>
  <g id="Suntalee_House_text">
    <g>
      <path d="M190.738,983.331 C185.187,989.455 181.172,997.77 180.211,1008.331 C178.725,1024.673 185.097,1037.505 198.816,1039.02 C210.215,1040.28 214.906,1032.377 219.893,1016.758 C224.455,1002.439 227.615,994.59 235.684,995.483 C242.845,996.272 245.982,1003.245 244.96,1014.474 C243.869,1026.48 237.844,1036.706 232.871,1040.986 L240.103,1046.613 C247.468,1038.443 252.009,1027.715 253.111,1015.599 C254.587,999.367 249.566,986.235 235.748,984.708 C222.835,983.282 217.669,993.043 212.843,1009.129 C208.624,1023.036 206.01,1029.372 198.344,1028.525 C191.081,1027.723 187.149,1021.674 188.261,1009.446 C189.12,999.995 193.61,992.07 197.676,988.813 z" fill="#44EE00"/>
      <path d="M190.738,983.331 C185.187,989.455 181.172,997.77 180.211,1008.331 C178.725,1024.673 185.097,1037.505 198.816,1039.02 C210.215,1040.28 214.906,1032.377 219.893,1016.758 C224.455,1002.439 227.615,994.59 235.684,995.483 C242.845,996.272 245.982,1003.245 244.96,1014.474 C243.869,1026.48 237.844,1036.706 232.871,1040.986 L240.103,1046.613 C247.468,1038.443 252.009,1027.715 253.111,1015.599 C254.587,999.367 249.566,986.235 235.748,984.708 C222.835,983.282 217.669,993.043 212.843,1009.129 C208.624,1023.036 206.01,1029.372 198.344,1028.525 C191.081,1027.723 187.149,1021.674 188.261,1009.446 C189.12,999.995 193.61,992.07 197.676,988.813 z" fill-opacity="0" stroke="#38C400" stroke-width="2"/>
    </g>
    <g>
      <path d="M264.753,959.323 C268.053,949.947 266.865,939.731 261.18,931.788 L267.245,934.022 C270.342,935.107 273.206,933.456 274.673,929.289 C275.004,928.352 275.218,927.124 275.579,925.481 L268.396,922.41 C267.569,924.452 266.424,924.922 264.346,924.033 L225.217,907.3 L221.99,916.467 L252.896,929.683 C259.319,936.145 261.42,945.313 258.78,952.813 C256.065,960.521 249.7,962.232 239.587,957.907 L211.611,945.943 L208.384,955.109 L237.967,967.761 C251.576,973.582 260.755,970.676 264.753,959.323 z" fill="#44EE00"/>
      <path d="M264.753,959.323 C268.053,949.947 266.865,939.731 261.18,931.788 L267.245,934.022 C270.342,935.107 273.206,933.456 274.673,929.289 C275.004,928.352 275.218,927.124 275.579,925.481 L268.396,922.41 C267.569,924.452 266.424,924.922 264.346,924.033 L225.217,907.3 L221.99,916.467 L252.896,929.683 C259.319,936.145 261.42,945.313 258.78,952.813 C256.065,960.521 249.7,962.232 239.587,957.907 L211.611,945.943 L208.384,955.109 L237.967,967.761 C251.576,973.582 260.755,970.676 264.753,959.323 z" fill-opacity="0" stroke="#38C400" stroke-width="2"/>
    </g>
    <g>
      <path d="M283.651,852.19 C273.357,843.853 263.658,840.852 256.396,851.746 C250.872,860.029 249.752,870.768 253.255,879.289 L244.104,871.879 L239.303,879.082 L281.946,913.618 L287.229,905.694 L261.496,884.853 C256.482,877.467 256.426,866.606 260.748,860.124 C264.89,853.912 270.934,854.092 280.003,861.435 L303.857,880.754 L309.139,872.83 z" fill="#44EE00"/>
      <path d="M283.651,852.19 C273.357,843.853 263.658,840.852 256.396,851.746 C250.872,860.029 249.752,870.768 253.255,879.289 L244.104,871.879 L239.303,879.082 L281.946,913.618 L287.229,905.694 L261.496,884.853 C256.482,877.467 256.426,866.606 260.748,860.124 C264.89,853.912 270.934,854.092 280.003,861.435 L303.857,880.754 L309.139,872.83 z" fill-opacity="0" stroke="#38C400" stroke-width="2"/>
    </g>
    <g>
      <path d="M331.415,836.344 C331.065,837.589 329.729,841.305 327.086,843.914 C324.745,846.224 321.63,846.746 318.91,843.732 L297.003,816.759 L305.841,808.041 L301.175,802.296 L292.338,811.016 L280.573,796.53 L273.926,803.088 L285.691,817.574 L280.328,822.864 L284.994,828.609 L290.356,823.317 L314.089,852.537 C319.161,858.78 325.538,857.587 330.373,852.818 C334.602,848.645 336.748,843.079 337.734,840.607 z" fill="#44EE00"/>
      <path d="M331.415,836.344 C331.065,837.589 329.729,841.305 327.086,843.914 C324.745,846.224 321.63,846.746 318.91,843.732 L297.003,816.759 L305.841,808.041 L301.175,802.296 L292.338,811.016 L280.573,796.53 L273.926,803.088 L285.691,817.574 L280.328,822.864 L284.994,828.609 L290.356,823.317 L314.089,852.537 C319.161,858.78 325.538,857.587 330.373,852.818 C334.602,848.645 336.748,843.079 337.734,840.607 z" fill-opacity="0" stroke="#38C400" stroke-width="2"/>
    </g>
    <g>
      <path d="M358.353,830.247 C364.561,826.231 369.862,818.528 370.739,809.799 L372.813,813.252 C374.936,816.801 378.766,816.267 381.302,814.627 C382.176,814.062 383.211,813.134 384.245,812.206 L380.346,804.883 C378.545,805.917 377.385,805.502 376.255,803.382 L365.327,782.857 C358.554,770.137 347.296,767.312 335.667,774.834 C329.372,778.904 324.782,784.854 321.232,792.979 L326.692,796.831 C329.624,789.753 333.355,784.62 338.076,781.567 C345.683,776.646 352.811,778.774 357.171,786.964 L359.326,791.013 C355.007,791.733 349.685,793.879 345.226,796.762 C333.948,804.057 329.325,815.466 334.405,825.007 C338.971,833.583 349.171,836.184 358.353,830.247 z M356.89,822.642 C350.42,826.827 344.109,824.689 341.34,819.485 C338.107,813.415 341.3,806.168 349.17,801.078 C352.929,798.646 357.588,796.8 361.994,796.024 L365.945,803.443 C366.509,804.503 366.754,806.289 366.387,808.469 C365.559,813.537 361.785,819.476 356.89,822.642 z" fill="#44EE00"/>
      <path d="M358.353,830.247 C364.561,826.231 369.862,818.528 370.739,809.799 L372.813,813.252 C374.936,816.801 378.766,816.267 381.302,814.627 C382.176,814.062 383.211,813.134 384.245,812.206 L380.346,804.883 C378.545,805.917 377.385,805.502 376.255,803.382 L365.327,782.857 C358.554,770.137 347.296,767.312 335.667,774.834 C329.372,778.904 324.782,784.854 321.232,792.979 L326.692,796.831 C329.624,789.753 333.355,784.62 338.076,781.567 C345.683,776.646 352.811,778.774 357.171,786.964 L359.326,791.013 C355.007,791.733 349.685,793.879 345.226,796.762 C333.948,804.057 329.325,815.466 334.405,825.007 C338.971,833.583 349.171,836.184 358.353,830.247 z M356.89,822.642 C350.42,826.827 344.109,824.689 341.34,819.485 C338.107,813.415 341.3,806.168 349.17,801.078 C352.929,798.646 357.588,796.8 361.994,796.024 L365.945,803.443 C366.509,804.503 366.754,806.289 366.387,808.469 C365.559,813.537 361.785,819.476 356.89,822.642 z" fill-opacity="0" stroke="#38C400" stroke-width="2"/>
    </g>
    <g>
      <path d="M392.086,797.427 C394.454,804.681 399.869,807.402 406.355,804.829 C409.311,803.656 413.295,801.007 415.649,798.648 L411.877,791.713 C410.495,793.092 408.568,794.45 407.137,795.018 C403.608,796.418 400.72,794.834 399.381,790.734 L378.952,728.184 L370.557,731.512 z" fill="#44EE00"/>
      <path d="M392.086,797.427 C394.454,804.681 399.869,807.402 406.355,804.829 C409.311,803.656 413.295,801.007 415.649,798.648 L411.877,791.713 C410.495,793.092 408.568,794.45 407.137,795.018 C403.608,796.418 400.72,794.834 399.381,790.734 L378.952,728.184 L370.557,731.512 z" fill-opacity="0" stroke="#38C400" stroke-width="2"/>
    </g>
    <g>
      <path d="M448.453,794.79 C458.98,793.04 467.069,785.479 469.313,776.406 L461.376,775.352 C459.958,781.465 454.171,786.381 447.756,787.449 C438.634,788.966 429.827,782.295 427.467,771.049 L470.872,763.83 C470.881,763.151 470.769,761.588 470.558,760.041 C468.44,744.574 456.209,732.371 440.371,735.004 C424.633,737.622 415.466,753.045 417.691,769.285 C419.914,785.526 432.716,797.408 448.453,794.79 z M426.283,763.902 C425.487,752.847 432.047,743.846 441.37,742.296 C450.692,740.746 459.354,747.102 461.769,758 z" fill="#44EE00"/>
      <path d="M448.453,794.79 C458.98,793.04 467.069,785.479 469.313,776.406 L461.376,775.352 C459.958,781.465 454.171,786.381 447.756,787.449 C438.634,788.966 429.827,782.295 427.467,771.049 L470.872,763.83 C470.881,763.151 470.769,761.588 470.558,760.041 C468.44,744.574 456.209,732.371 440.371,735.004 C424.633,737.622 415.466,753.045 417.691,769.285 C419.914,785.526 432.716,797.408 448.453,794.79 z M426.283,763.902 C425.487,752.847 432.047,743.846 441.37,742.296 C450.692,740.746 459.354,747.102 461.769,758 z" fill-opacity="0" stroke="#38C400" stroke-width="2"/>
    </g>
    <g>
      <path d="M505.207,793.721 C515.785,795.032 525.374,790.037 529.672,781.912 L522.253,778.631 C519.447,784.129 512.704,787.23 506.257,786.431 C497.089,785.293 490.148,776.338 490.51,764.802 L534.13,770.21 C534.299,769.555 534.558,768.014 534.717,766.459 C536.302,750.915 527.355,735.639 511.437,733.666 C495.621,731.705 483.146,743.989 481.48,760.311 C479.815,776.631 489.39,791.76 505.207,793.721 z M491.043,757.561 C492.871,746.656 501.32,739.833 510.689,740.994 C520.058,742.155 526.932,750.766 526.707,761.98 z" fill="#44EE00"/>
      <path d="M505.207,793.721 C515.785,795.032 525.374,790.037 529.672,781.912 L522.253,778.631 C519.447,784.129 512.704,787.23 506.257,786.431 C497.089,785.293 490.148,776.338 490.51,764.802 L534.13,770.21 C534.299,769.555 534.558,768.014 534.717,766.459 C536.302,750.915 527.355,735.639 511.437,733.666 C495.621,731.705 483.146,743.989 481.48,760.311 C479.815,776.631 489.39,791.76 505.207,793.721 z M491.043,757.561 C492.871,746.656 501.32,739.833 510.689,740.994 C520.058,742.155 526.932,750.766 526.707,761.98 z" fill-opacity="0" stroke="#38C400" stroke-width="2"/>
    </g>
    <g>
      <path d="M645.408,766.082 L629.935,795.844 L595.542,774.126 L611.014,744.364 L603.097,739.366 L567.315,808.198 L575.232,813.196 L591.51,781.882 L625.904,803.6 L609.626,834.913 L617.542,839.912 L653.323,771.082 z" fill="#44EE00"/>
      <path d="M645.408,766.082 L629.935,795.844 L595.542,774.126 L611.014,744.364 L603.097,739.366 L567.315,808.198 L575.232,813.196 L591.51,781.882 L625.904,803.6 L609.626,834.913 L617.542,839.912 L653.323,771.082 z" fill-opacity="0" stroke="#38C400" stroke-width="2"/>
    </g>
    <g>
      <path d="M644.722,871.064 C655.623,883.845 672.286,882.99 682.996,871.893 C693.78,860.718 695.513,842.36 684.681,829.662 C673.918,817.044 657.186,817.819 646.402,828.992 C635.692,840.089 633.82,858.283 644.722,871.064 z M652.577,836.395 C660.628,828.053 672.471,827.744 679.067,835.478 C685.733,843.293 684.798,856.224 676.82,864.489 C668.769,872.832 657.001,873.063 650.336,865.248 C643.669,857.433 644.526,844.736 652.577,836.395 z" fill="#44EE00"/>
      <path d="M644.722,871.064 C655.623,883.845 672.286,882.99 682.996,871.893 C693.78,860.718 695.513,842.36 684.681,829.662 C673.918,817.044 657.186,817.819 646.402,828.992 C635.692,840.089 633.82,858.283 644.722,871.064 z M652.577,836.395 C660.628,828.053 672.471,827.744 679.067,835.478 C685.733,843.293 684.798,856.224 676.82,864.489 C668.769,872.832 657.001,873.063 650.336,865.248 C643.669,857.433 644.526,844.736 652.577,836.395 z" fill-opacity="0" stroke="#38C400" stroke-width="2"/>
    </g>
    <g>
      <path d="M676.467,918.178 C680.735,927.065 688.517,932.767 697.687,933.234 L692.185,936.822 C689.412,938.691 688.667,942.158 690.564,946.109 C690.991,946.998 691.692,947.979 692.582,949.357 L699.392,945.386 C698.533,943.358 698.96,942.098 700.932,940.948 L738.029,919.317 L733.857,910.626 L704.555,927.713 C695.917,928.83 688.256,924.576 684.842,917.466 C681.334,910.157 684.329,903.734 693.916,898.143 L720.44,882.678 L716.268,873.986 L688.221,890.341 C675.318,897.865 671.299,907.413 676.467,918.178 z" fill="#44EE00"/>
      <path d="M676.467,918.178 C680.735,927.065 688.517,932.767 697.687,933.234 L692.185,936.822 C689.412,938.691 688.667,942.158 690.564,946.109 C690.991,946.998 691.692,947.979 692.582,949.357 L699.392,945.386 C698.533,943.358 698.96,942.098 700.932,940.948 L738.029,919.317 L733.857,910.626 L704.555,927.713 C695.917,928.83 688.256,924.576 684.842,917.466 C681.334,910.157 684.329,903.734 693.916,898.143 L720.44,882.678 L716.268,873.986 L688.221,890.341 C675.318,897.865 671.299,907.413 676.467,918.178 z" fill-opacity="0" stroke="#38C400" stroke-width="2"/>
    </g>
    <g>
      <path d="M699.731,982.84 C702.808,996.504 710.886,1003.619 720.431,1001.009 C729.187,998.613 730.33,990.703 730.182,974.741 C730.174,964.498 730.426,960.514 735.247,959.197 C741.151,957.581 744.955,962.412 746.517,969.352 C747.909,975.534 747.432,982.226 744.669,988.046 L750.86,990.958 C753.747,984.758 754.768,976.305 752.863,967.847 C750.152,955.811 742.372,947.693 732.04,950.519 C723.972,952.726 722.904,959.119 722.931,973.616 C723.011,985.106 722.683,990.607 717.567,992.007 C712.254,993.459 707.909,989.007 706.077,980.874 C704.441,973.608 705.313,966.348 708.35,958.495 L701.617,955.963 C698.212,963.57 697.704,973.84 699.731,982.84 z" fill="#44EE00"/>
      <path d="M699.731,982.84 C702.808,996.504 710.886,1003.619 720.431,1001.009 C729.187,998.613 730.33,990.703 730.182,974.741 C730.174,964.498 730.426,960.514 735.247,959.197 C741.151,957.581 744.955,962.412 746.517,969.352 C747.909,975.534 747.432,982.226 744.669,988.046 L750.86,990.958 C753.747,984.758 754.768,976.305 752.863,967.847 C750.152,955.811 742.372,947.693 732.04,950.519 C723.972,952.726 722.904,959.119 722.931,973.616 C723.011,985.106 722.683,990.607 717.567,992.007 C712.254,993.459 707.909,989.007 706.077,980.874 C704.441,973.608 705.313,966.348 708.35,958.495 L701.617,955.963 C698.212,963.57 697.704,973.84 699.731,982.84 z" fill-opacity="0" stroke="#38C400" stroke-width="2"/>
    </g>
    <g>
      <path d="M706.232,1042.442 C706.262,1054.172 711.861,1064.1 719.676,1067.876 L721.785,1059.378 C716.508,1056.935 712.941,1049.907 712.924,1042.757 C712.899,1032.589 720.178,1023.964 730.617,1023.04 L730.736,1071.418 C731.344,1071.529 732.763,1071.636 734.183,1071.631 C748.375,1071.589 761.121,1060.044 761.077,1042.391 C761.035,1024.849 748.536,1012.596 733.633,1012.639 C718.731,1012.684 706.19,1024.9 706.232,1042.442 z M737.207,1022.796 C747.245,1023.549 754.362,1032.02 754.387,1042.411 C754.411,1052.802 747.438,1061.313 737.303,1062.348 z" fill="#44EE00"/>
      <path d="M706.232,1042.442 C706.262,1054.172 711.861,1064.1 719.676,1067.876 L721.785,1059.378 C716.508,1056.935 712.941,1049.907 712.924,1042.757 C712.899,1032.589 720.178,1023.964 730.617,1023.04 L730.736,1071.418 C731.344,1071.529 732.763,1071.636 734.183,1071.631 C748.375,1071.589 761.121,1060.044 761.077,1042.391 C761.035,1024.849 748.536,1012.596 733.633,1012.639 C718.731,1012.684 706.19,1024.9 706.232,1042.442 z M737.207,1022.796 C747.245,1023.549 754.362,1032.02 754.387,1042.411 C754.411,1052.802 747.438,1061.313 737.303,1062.348 z" fill-opacity="0" stroke="#38C400" stroke-width="2"/>
    </g>
  </g>
  <g id="Place_Names">
    <g>
      <text transform="matrix(1, 0, 0, 1, 1100.503, 901.905)">
        <tspan x="-128.503" y="-16.5" font-family="Thonburi" font-size="60" fill="#001799">Family </tspan>
        <tspan x="-128.503" y="66.5" font-family="Thonburi" font-size="60" fill="#001799">Mart</tspan>
      </text>
    </g>
    <g>
      <text transform="matrix(1, 0, 0, 1, 1433.371, 978.211)">
        <tspan x="-152.47" y="-67.486" font-family="Thonburi" font-size="60" fill="#001799">Wat </tspan>
        <tspan x="-152.47" y="15.514" font-family="Thonburi" font-size="60" fill="#001799">Mongkhon</tspan>
        <tspan x="-152.47" y="98.514" font-family="Thonburi" font-size="60" fill="#011A99">Wanaram</tspan>
      </text>
    </g>
  </g>
  <g id="TelGlory" display="none">
    <text transform="matrix(1, 0, 0, 1, 1206.92, 1284.722)">
      <tspan x="-675.405" y="52.978" font-family="Thonburi" font-size="160" fill="#006F10">095-0854-159</tspan>
    </text>
    <path d="M482.74,1237.522 C486.324,1237.522 489.222,1240.071 489.222,1243.212 L489.222,1252.697 L492.411,1252.697 C494.498,1252.697 496.475,1253.881 497.694,1255.876 C502.653,1264.003 515.15,1285.818 515.15,1298.936 L515.15,1313.399 C515.15,1317.595 512.252,1320.987 508.668,1320.987 L430.884,1320.987 C427.299,1320.987 424.402,1317.587 424.402,1313.399 L424.402,1298.224 C424.402,1287.995 436.958,1264.815 441.897,1256.096 C443.102,1253.972 445.125,1252.697 447.303,1252.697 L450.33,1252.697 L450.33,1243.212 C450.33,1240.071 453.227,1237.522 456.812,1237.522 C460.396,1237.522 463.294,1240.071 463.294,1243.212 L463.294,1252.697 L476.258,1252.697 L476.258,1243.212 C476.258,1240.071 479.155,1237.522 482.74,1237.522 z M469.776,1267.873 C459.055,1267.873 450.33,1278.086 450.33,1290.636 C450.33,1303.186 459.055,1313.399 469.776,1313.399 C480.497,1313.399 489.222,1303.186 489.222,1290.636 C489.222,1278.086 480.497,1267.873 469.776,1267.873 z M469.776,1275.46 C476.938,1275.46 482.74,1282.259 482.74,1290.636 C482.74,1299.013 476.938,1305.811 469.776,1305.811 C462.62,1305.811 456.812,1299.013 456.812,1290.636 C456.812,1282.259 462.62,1275.46 469.776,1275.46 z M469.772,1207.167 C443.845,1207.167 433.324,1214.914 425.351,1222.82 C420.97,1227.176 417.917,1230.363 417.916,1237.093 L417.916,1245.113 C417.917,1249.302 420.82,1252.701 424.398,1252.701 L437.362,1252.701 C440.947,1252.701 443.845,1249.256 443.844,1245.113 C443.845,1240.963 444.415,1237.465 447.493,1232.783 C450.534,1228.155 456.809,1222.342 469.772,1222.661 C482.737,1222.342 489.121,1228.155 492.161,1232.783 C495.234,1237.465 495.908,1240.963 495.907,1245.113 C495.908,1249.256 498.805,1252.701 502.389,1252.701 L515.353,1252.701 C518.932,1252.701 521.628,1249.302 521.628,1245.113 L521.628,1237.093 C521.628,1230.363 518.595,1227.176 514.2,1222.82 C506.234,1214.914 495.701,1207.167 469.772,1207.167 z" fill="#006F10"/>
  </g>
</svg>
