<?xml version="1.0" encoding="UTF-8"?>
<!DOCTYPE svg PUBLIC "-//W3C//DTD SVG 1.1//EN" "http://www.w3.org/Graphics/SVG/1.1/DTD/svg11.dtd">
<svg version="1.1" xmlns="http://www.w3.org/2000/svg" xmlns:xlink="http://www.w3.org/1999/xlink" x="0" y="0" width="1024" height="640" viewBox="0, 0, 2560, 1600">
  <g id="roads">
    <path d="M84.5,168.5 L2460.5,168.5" fill-opacity="0" stroke="#80C8FF" stroke-width="100"/>
    <path d="M84.5,263.5 L2460.5,264.5" fill-opacity="0" stroke="#FFF3AA" stroke-width="100"/>
    <path d="M2460.5,408.5 L84.5,407.5" fill-opacity="0" stroke="#86FF55" stroke-width="200"/>
    <path d="M84.5,492.5 L2460.5,492.5" fill-opacity="0" stroke="#AAAAAA" stroke-width="50"/>
    <path d="M84.5,1140.5 L2460.5,1140.5" fill-opacity="0" stroke="#AAAAAA" stroke-width="50"/>
    <path d="M480.5,1068.5 L480.5,1128.5" fill-opacity="0" stroke="#AAAAAA" stroke-width="30"/>
    <path d="M936.5,504.5 L936.5,1128.5" fill-opacity="0" stroke="#AAAAAA" stroke-width="40"/>
    <path d="M2052.5,504.5 L2052.5,1128.5" fill-opacity="0" stroke="#AAAAAA" stroke-width="40"/>
    <path d="M1524.5,512.75 L1524.5,1120.25" fill-opacity="0" stroke="#AAAAAA" stroke-width="40"/>
  </g>
  <g id="Frame">
    <path d="M94.5,96.5 L2450.5,96.5 C2456.023,96.5 2460.5,100.977 2460.5,106.5 L2460.5,1382.5 C2460.5,1388.023 2456.023,1392.5 2450.5,1392.5 L94.5,1392.5 C88.977,1392.5 84.5,1388.023 84.5,1382.5 L84.5,106.5 C84.5,100.977 88.977,96.5 94.5,96.5 z" fill-opacity="0" stroke="#D5D5D5" stroke-width="50" display="none"/>
  </g>
  <g id="Text">
    <text transform="matrix(1, 0, 0, 1, 415.472, 168)">
      <tspan x="-235.472" y="25" font-family="Raleway-Medium" font-size="72" fill="#2B2B2B">Andaman Sea</tspan>
    </text>
    <text transform="matrix(1, 0, 0, 1, 497.885, 258)">
      <tspan x="-263.192" y="25" font-family="Raleway-Medium" font-size="72" fill="#2B2B2B">Nai Yang Beach</tspan>
    </text>
    <text transform="matrix(1, 0, 0, 1, 605.753, 375)">
      <tspan x="-337.496" y="25" font-family="Raleway-Medium" font-size="72" fill="#2B2B2B">Sirinat National Park</tspan>
    </text>
  </g>
  <g id="Hotels">
    <text transform="matrix(1, 0, 0, 1, 1621.841, 546.55)" display="none">
      <tspan x="-47.984" y="12.5" font-family="Raleway-Regular" font-size="36" fill="#2B2B2B">Dewa</tspan>
    </text>
    <g>
      <text transform="matrix(1, 0, 0, 1, 813.345, 549.114)" display="none">
        <tspan x="-52.268" y="12.5" font-family="Raleway-Regular" font-size="36" fill="#202020">Indigo </tspan>
      </text>
      <text transform="matrix(1, 0, 0, 1, 813.345, 591.114)" display="none">
        <tspan x="-43.178" y="12.5" font-family="Raleway-Regular" font-size="36" fill="#202020">Pearl</tspan>
      </text>
    </g>
  </g>
  <g id="Symbols">
    <path d="M979.236,1009.639 C983.218,1009.639 986.456,1012.424 986.456,1015.862 L986.121,1017.264 L993.684,1021.599 L1088,1032.446 L1076.215,1076.869 L1016.471,1076.869 L1011.729,1089.746 C1014.081,1091.282 1015.801,1093.498 1016.411,1096.078 L1054.241,1096.078 C1055.507,1091.494 1060.264,1088.074 1065.981,1088.074 C1072.658,1088.074 1078.077,1092.736 1078.077,1098.479 C1078.077,1104.223 1072.658,1108.884 1065.981,1108.884 C1060.948,1108.884 1056.638,1106.24 1054.822,1102.481 L1015.614,1102.481 C1013.709,1106.246 1009.347,1108.884 1004.255,1108.884 C997.406,1108.884 991.853,1104.107 991.853,1098.217 C991.853,1092.32 997.406,1087.543 1004.255,1087.543 L1004.724,1087.581 L1008.662,1076.869 L1004.255,1076.869 L989.531,1026.92 L980.665,1021.823 L979.236,1022.073 C975.246,1022.073 972,1019.294 972,1015.862 C972,1012.424 975.246,1009.639 979.236,1009.639 z" fill="#2BFFFF"/>
    <path d="M483.898,852.818 L541.94,886.702 L541.94,856.173 L581.726,856.173 L581.726,909.925 L637.403,942.443 L613.25,966.607 L596.742,956.962 L596.742,1068 L371.034,1068 L371.034,956.962 L354.507,966.607 L330.373,942.427 L483.898,852.818 z M483.898,893.219 L393.161,946.209 L393.161,1051.096 L444.111,1051.096 L444.111,986.867 L523.684,986.867 L523.684,1051.096 L574.634,1051.096 L574.634,946.209 L483.898,893.219 z" fill="#8CC400"/>
    <path d="M2247.229,928.771 C2251.872,931.902 2246.606,949.724 2243.303,954.62 L2231.254,972.483 L2248.359,1024.45 C2248.756,1025.61 2248.578,1026.916 2247.865,1027.973 L2247.415,1028.639 C2246.737,1029.645 2245.656,1030.312 2244.492,1030.41 C2243.32,1030.531 2242.19,1030.083 2241.431,1029.219 L2214.506,997.313 L2196.09,1024.617 L2201.457,1040.387 C2201.904,1041.581 2201.737,1042.95 2201.006,1044.034 L2200.697,1044.491 C2200.01,1045.51 2198.896,1046.173 2197.708,1046.265 C2196.516,1046.364 2195.381,1045.883 2194.636,1044.972 L2181.172,1026.704 L2159.134,1021.149 C2158.01,1020.799 2157.135,1019.933 2156.784,1018.785 C2156.419,1017.656 2156.618,1016.374 2157.305,1015.355 L2157.613,1014.898 C2158.348,1013.808 2159.555,1013.14 2160.83,1013.107 L2177.506,1012.11 L2195.936,984.787 L2156.267,971.775 C2155.182,971.395 2154.343,970.516 2154.016,969.383 C2153.671,968.267 2153.885,967.015 2154.563,966.009 L2155.013,965.343 C2155.726,964.286 2156.869,963.632 2158.094,963.565 L2212.684,959.958 L2224.732,942.094 C2228.035,937.198 2242.586,925.639 2247.229,928.771 z" fill="#001699"/>
    <g>
      <path d="M798.308,218.5 C795.583,218.5 792.955,218.036 790.628,217.25 C788.223,216.407 785.51,215.919 782.694,215.919 C779.87,215.919 777.161,216.407 774.759,217.25 C772.417,218.036 769.804,218.5 767.064,218.5 C764.339,218.5 761.711,218.036 759.384,217.25 C756.959,216.407 754.266,215.919 751.45,215.919 C748.626,215.919 745.917,216.407 743.531,217.25 C741.173,218.036 738.544,218.5 735.82,218.5 C733.076,218.5 730.467,218.036 728.124,217.25 C725.715,216.407 723.006,215.919 720.206,215.919 C717.366,215.919 714.657,216.407 712.271,217.25 C709.929,218.036 707.3,218.5 704.56,218.5 C701.828,218.5 699.199,218.036 696.857,217.25 C694.451,216.407 691.746,215.919 688.946,215.919 C686.122,215.919 683.413,216.407 681.027,217.25 C678.669,218.036 676.056,218.5 673.308,218.5 L673.308,209.866 C676.052,209.866 678.669,209.402 681.027,208.616 C683.417,207.809 686.122,207.317 688.946,207.317 C691.746,207.317 694.455,207.806 696.857,208.616 C699.199,209.402 701.828,209.866 704.56,209.866 C707.3,209.866 709.929,209.402 712.271,208.616 C714.661,207.809 717.366,207.317 720.206,207.317 C723.006,207.317 725.715,207.806 728.124,208.616 C730.467,209.402 733.072,209.866 735.82,209.866 C738.544,209.866 741.173,209.402 743.531,208.616 C745.921,207.809 748.626,207.317 751.45,207.317 C754.266,207.317 756.959,207.806 759.384,208.616 C761.711,209.402 764.339,209.866 767.064,209.866 C769.804,209.866 772.417,209.402 774.759,208.616 C777.165,207.809 779.87,207.317 782.694,207.317 C785.51,207.317 788.227,207.806 790.628,208.616 C792.955,209.402 795.583,209.866 798.308,209.866 L798.308,218.5 z" fill="#001CC4"/>
      <path d="M748.132,117.5 L748.132,182.44 L676.977,182.44 z" fill="#001CC4"/>
      <path d="M754.883,132.495 C775.819,139.768 800.689,159.174 797.439,182.45 L754.883,182.45 L754.883,132.495 z" fill="#001CC4"/>
      <path d="M788.43,187.138 L769.012,187.138 L693.789,187.138 L693.789,199.976 C694.841,200.19 695.889,200.416 696.86,200.773 C699.203,201.536 701.831,202 704.556,202 C707.3,202 709.933,201.536 712.275,200.773 C714.665,199.931 717.37,199.443 720.21,199.443 C723.026,199.443 725.719,199.931 728.12,200.773 C730.463,201.536 733.076,202 735.824,202 C738.548,202 741.177,201.536 743.535,200.773 C745.925,199.931 748.63,199.443 751.454,199.443 C754.27,199.443 756.963,199.931 759.388,200.773 C761.715,201.536 764.336,202 767.068,202 C767.59,202 768.088,201.908 768.594,201.854 C768.641,201.854 768.657,201.908 768.709,201.908 C769.044,201.908 769.291,201.786 769.625,201.786 C770.247,201.726 770.884,201.682 771.509,201.559 C777.102,200.705 780.718,197.442 780.718,197.442 L791.6,187.138 L788.43,187.138 z" fill="#001CC4"/>
    </g>
    <g>
      <path d="M1030.122,328 L1051.682,351.5 L1040.902,351.5 L1062.463,375 L1046.292,375 L1073.243,404.375 L1040.902,404.375 L1040.902,422 L1019.341,422 L1019.341,404.375 L987,404.375 L1013.951,375 L997.78,375 L1019.341,351.5 L1008.561,351.5 L1030.122,328 z" fill="#009916"/>
      <path d="M1181.404,332 C1182.614,332 1183.752,332.66 1184.407,333.725 C1185.062,334.812 1185.14,336.177 1184.628,337.332 L1183.667,339.5 L1173.512,362.555 L1177.732,370.76 C1180.031,370.01 1182.422,369.5 1184.948,369.5 C1198.703,369.5 1209.854,381.245 1209.854,395.75 C1209.854,410.255 1198.703,422 1184.948,422 C1171.193,422 1160.042,410.255 1160.042,395.75 C1160.042,386.638 1164.461,378.628 1171.15,373.91 L1169.713,371.158 L1165.465,362.982 L1164.959,362 L1139.101,362 C1136.14,362 1133.522,364.01 1132.611,366.965 L1131.095,371.84 C1139.748,375.957 1145.811,385.085 1145.811,395.75 C1145.811,410.255 1134.66,422 1120.906,422 C1107.151,422 1096,410.255 1096,395.75 C1096,381.245 1107.151,369.5 1120.906,369.5 C1122.044,369.5 1123.133,369.702 1124.243,369.853 L1128.213,357.08 C1128.69,355.543 1130.049,354.5 1131.594,354.5 L1169.201,354.5 L1175.818,339.5 L1163.601,339.5 C1161.636,339.5 1160.042,337.827 1160.042,335.75 C1160.042,333.688 1161.636,332 1163.601,332 L1181.404,332 z M1184.948,377 C1183.653,377 1182.401,377.158 1181.184,377.443 L1189.936,394.415 C1190.399,395.307 1190.491,396.365 1190.199,397.332 C1189.908,398.3 1189.253,399.103 1188.392,399.56 L1188.378,399.575 C1186.67,400.467 1184.599,399.777 1183.674,398.022 L1174.609,380.562 C1170.119,383.975 1167.158,389.495 1167.158,395.75 C1167.158,406.092 1175.135,414.5 1184.948,414.5 C1194.761,414.5 1202.738,406.092 1202.738,395.75 C1202.738,385.408 1194.761,377 1184.948,377 z M1120.906,377 C1111.093,377 1103.116,385.408 1103.116,395.75 C1103.116,406.092 1111.093,414.5 1120.906,414.5 C1130.718,414.5 1138.695,406.092 1138.695,395.75 C1138.695,388.438 1134.667,382.152 1128.847,379.062 L1125.203,390.799 C1124.905,391.737 1124.271,392.525 1123.425,392.982 C1122.578,393.418 1121.603,393.492 1120.706,393.185 C1118.849,392.525 1117.839,390.418 1118.443,388.452 L1121.973,377.12 C1121.617,377.09 1121.275,377 1120.906,377 z M1142.274,339.5 L1120.906,339.5 C1118.941,339.5 1117.348,341.188 1117.348,343.25 C1117.348,345.327 1118.941,347 1120.906,347 L1131.579,347 C1136.93,347 1140.083,345.08 1143.228,342.125 C1143.662,341.712 1143.811,341.052 1143.598,340.467 C1143.392,339.883 1142.865,339.5 1142.274,339.5 z" fill="#009916"/>
      <g>
        <path d="M1263.83,346.151 C1269.134,346.151 1273.43,342.972 1273.43,339.066 C1273.43,335.16 1269.134,332 1263.83,332 C1258.519,332 1254.204,335.157 1254.204,339.066 C1254.204,342.975 1258.523,346.151 1263.83,346.151" fill="#009916"/>
        <path d="M1247.59,347.32 C1247.954,346.233 1247.023,345.147 1245.565,344.874 L1237.572,343.453 C1236.06,343.202 1234.577,343.849 1234.242,344.938 L1227.51,365.444 C1227.139,366.53 1228.041,367.616 1229.528,367.889 L1237.572,369.31 C1239.011,369.583 1240.524,368.914 1240.858,367.825 L1247.59,347.32 z" fill="#009916"/>
        <path d="M1284.553,420.243 C1284.553,420.286 1284.524,420.326 1284.524,420.348 C1284.524,421.247 1285.51,421.977 1286.731,421.977 C1287.854,421.977 1288.781,421.351 1288.927,420.557 L1305.059,356.156 L1305.059,356.03 C1305.059,355.153 1304.092,354.42 1302.871,354.42 C1301.769,354.42 1300.911,355.046 1300.675,355.84 L1284.553,420.243 z" fill="#009916"/>
        <path d="M1230.889,416.023 C1230.805,416.357 1230.776,416.702 1230.776,417.026 C1230.776,419.785 1233.786,422 1237.534,422 C1240.602,422 1243.194,420.496 1244,418.447 L1255.622,383.057 L1266.698,418.236 C1267.414,420.408 1270.071,421.997 1273.23,421.997 C1276.978,421.997 1279.988,419.782 1279.988,417.023 C1279.988,416.646 1279.93,416.293 1279.846,415.937 L1264.644,369.198 L1265.931,365.08 L1266.931,368.321 C1267.832,370.432 1270.453,370.64 1270.453,370.64 L1286.095,373.567 C1286.4,373.61 1286.72,373.629 1287.025,373.629 C1289.588,373.629 1291.667,372.125 1291.667,370.242 C1291.667,368.631 1290.155,367.274 1288.116,366.919 L1274.561,364.409 L1270.842,353.289 C1269.083,347.082 1261.009,347.227 1261.009,347.227 C1253.179,347.079 1251.212,353.142 1251.212,353.142 L1230.889,416.023 z" fill="#009916"/>
      </g>
      <path d="M1366.7,381.857 L1393.368,381.857 L1384.582,355.68 L1375.484,355.68 L1366.7,381.857 z M1351.798,355.68 L1351.798,346 L1410.202,346 L1410.202,355.68 L1395.455,355.68 L1404.241,381.857 L1426,381.857 L1426,391.524 L1407.519,391.524 L1417.799,422 L1407.823,422 L1397.543,391.524 L1364.321,391.524 L1354.108,422 L1344.132,422 L1354.329,391.524 L1336,391.524 L1336,381.857 L1357.602,381.857 L1366.402,355.68 L1351.798,355.68 z" fill="#009916"/>
    </g>
    <g>
      <path d="M947,215 C944.654,215 942.418,214.345 940.427,213.229 C938.367,212.083 936.046,211.391 933.635,211.391 C931.204,211.391 928.886,212.079 926.83,213.229 C924.839,214.345 922.602,215 920.257,215 C917.911,215 915.675,214.345 913.684,213.229 C911.594,212.083 909.275,211.391 906.892,211.391 C904.461,211.391 902.143,212.079 900.101,213.229 C898.096,214.345 895.832,215 893.514,215 C891.165,215 888.931,214.345 886.906,213.229 C884.847,212.083 882.532,211.391 880.149,211.391 C877.718,211.391 875.4,212.079 873.357,213.229 C871.353,214.345 869.089,215 866.74,215 C864.421,215 862.158,214.345 860.167,213.229 C858.107,212.083 855.792,211.391 853.375,211.391 C850.978,211.391 848.66,212.079 846.618,213.229 C844.579,214.345 842.349,215 840,215 L840,202.839 C842.349,202.839 844.582,202.184 846.618,201.101 C848.663,199.922 850.978,199.234 853.375,199.234 C855.792,199.234 858.111,199.922 860.167,201.101 C862.158,202.184 864.421,202.839 866.74,202.839 C869.089,202.839 871.356,202.184 873.357,201.101 C875.403,199.922 877.718,199.234 880.149,199.234 C882.532,199.234 884.85,199.922 886.906,201.101 C888.931,202.184 891.161,202.839 893.514,202.839 C895.832,202.839 898.096,202.184 900.101,201.101 C902.146,199.922 904.461,199.234 906.892,199.234 C909.275,199.234 911.594,199.922 913.684,201.101 C915.675,202.184 917.911,202.839 920.257,202.839 C922.602,202.839 924.839,202.184 926.83,201.101 C928.889,199.922 931.204,199.234 933.635,199.234 C936.046,199.234 938.371,199.922 940.427,201.101 C942.418,202.184 944.654,202.839 947,202.839 L947,215 z" fill="#001CC4"/>
      <path d="M931.498,180.629 C938.534,180.629 944.235,173.579 944.235,164.926 C944.235,156.273 938.534,149.257 931.498,149.257 C924.461,149.257 918.76,156.273 918.76,164.926 C918.76,173.579 923.953,180.629 931.498,180.629" fill="#001CC4"/>
      <path d="M857.371,189.452 C858.356,189.746 859.294,190.174 860.167,190.665 C862.171,191.781 864.435,192.436 866.753,192.436 C869.085,192.436 871.349,191.781 873.354,190.665 C875.406,189.519 877.721,188.798 880.145,188.798 C882.549,188.798 884.867,189.519 886.91,190.665 C888.928,191.781 891.178,192.436 893.51,192.436 C895.829,192.436 898.092,191.781 900.097,190.665 C902.15,189.519 904.465,188.798 906.889,188.798 C909.292,188.798 911.611,189.519 913.68,190.665 C915.671,191.781 917.908,192.436 920.253,192.436 C921.958,192.436 923.608,192.075 925.166,191.483 L903.929,144.307 L928.627,138.768 C932.244,137.916 934.886,134.408 934.886,129.917 C934.886,124.966 931.596,121 927.601,121 C927.314,121 927.042,121 926.782,121.034 L888.638,129.59 C885.955,130.345 882.406,135.163 884.424,141.097 C884.537,141.424 884.642,141.718 884.752,142.049 L894.714,164.177 L857.371,189.452 z" fill="#001CC4"/>
    </g>
    <g>
      <path d="M891.049,218.5 L895.521,218.5 L895.521,234.874 L891.049,234.874 z" fill="#EECC00"/>
      <path d="M890.784,298.126 L895.256,298.126 L895.256,314.5 L890.784,314.5 z" fill="#EECC00"/>
      <path d="M926.251,263.336 L943.249,263.336 L943.249,267.632 L926.251,267.632 z" fill="#EECC00"/>
      <path d="M843.249,263.069 L860.247,263.069 L860.247,267.365 L843.249,267.365 z" fill="#EECC00"/>
      <path d="M866.668,247.56 L864.5,251.328 L849.643,243.397 L851.811,239.629 z" fill="#EECC00"/>
      <path d="M880.565,237.221 L876.778,239.513 L867.729,225.64 L871.516,223.348 z" fill="#EECC00"/>
      <path d="M920.314,306.945 L916.449,309.091 L907.962,294.905 L911.827,292.759 z" fill="#EECC00"/>
      <path d="M937.942,287.669 L935.774,291.437 L920.895,283.495 L923.063,279.727 z" fill="#EECC00"/>
      <path d="M875.117,292.558 L879.029,294.646 L870.784,308.978 L866.872,306.89 z" fill="#EECC00"/>
      <path d="M862.6,278.648 L864.949,282.301 L850.499,290.925 L848.149,287.272 z" fill="#EECC00"/>
      <path d="M934.856,240.471 L937.092,244.202 L922.372,252.39 L920.135,248.66 z" fill="#EECC00"/>
      <path d="M915.192,223.561 L919.099,225.658 L910.83,239.95 L906.923,237.853 z" fill="#EECC00"/>
      <path d="M865.684,266.448 C865.684,251.746 878.041,239.844 893.303,239.844 C908.541,239.844 920.898,251.746 920.898,266.448 C920.898,281.137 908.541,293.04 893.303,293.04 C878.041,293.052 865.684,281.137 865.684,266.448" fill="#EECC00"/>
    </g>
  </g>
  <g id="Road_names">
    <text transform="matrix(1, 0, 0, 1, 2201.456, 1179.384)">
      <tspan x="-123.476" y="-14.5" font-family="Raleway-Regular" font-size="60" fill="#2B2B2B">Route </tspan>
      <tspan x="-123.476" y="55.5" font-family="Raleway-Regular" font-size="60" fill="#2B2B2B">4031</tspan>
    </text>
    <text transform="matrix(1, 0, 0, 1, 2244.668, 534)">
      <tspan x="-126.332" y="-14.5" font-family="Raleway-Regular" font-size="60" fill="#2B2B2B">Route </tspan>
      <tspan x="-126.332" y="55.5" font-family="Raleway-Regular" font-size="60" fill="#2B2B2B">4027</tspan>
    </text>
  </g>
  <g id="Suntalee">
    <g>
      <path d="M190.738,983.331 C185.187,989.455 181.172,997.77 180.211,1008.331 C178.725,1024.673 185.097,1037.505 198.816,1039.02 C210.215,1040.28 214.906,1032.377 219.893,1016.758 C224.455,1002.439 227.615,994.59 235.684,995.483 C242.845,996.272 245.982,1003.245 244.96,1014.474 C243.869,1026.48 237.844,1036.706 232.871,1040.986 L240.103,1046.613 C247.468,1038.443 252.009,1027.715 253.111,1015.599 C254.587,999.367 249.566,986.235 235.748,984.708 C222.835,983.282 217.669,993.043 212.843,1009.129 C208.624,1023.036 206.01,1029.372 198.344,1028.525 C191.081,1027.723 187.149,1021.674 188.261,1009.446 C189.12,999.995 193.61,992.07 197.676,988.813 z" fill="#44EE00"/>
      <path d="M190.738,983.331 C185.187,989.455 181.172,997.77 180.211,1008.331 C178.725,1024.673 185.097,1037.505 198.816,1039.02 C210.215,1040.28 214.906,1032.377 219.893,1016.758 C224.455,1002.439 227.615,994.59 235.684,995.483 C242.845,996.272 245.982,1003.245 244.96,1014.474 C243.869,1026.48 237.844,1036.706 232.871,1040.986 L240.103,1046.613 C247.468,1038.443 252.009,1027.715 253.111,1015.599 C254.587,999.367 249.566,986.235 235.748,984.708 C222.835,983.282 217.669,993.043 212.843,1009.129 C208.624,1023.036 206.01,1029.372 198.344,1028.525 C191.081,1027.723 187.149,1021.674 188.261,1009.446 C189.12,999.995 193.61,992.07 197.676,988.813 z" fill-opacity="0" stroke="#38C400" stroke-width="2"/>
    </g>
    <g>
      <path d="M264.753,959.323 C268.053,949.947 266.865,939.731 261.18,931.788 L267.245,934.022 C270.342,935.107 273.206,933.456 274.673,929.289 C275.004,928.352 275.218,927.124 275.579,925.481 L268.396,922.41 C267.569,924.452 266.424,924.922 264.346,924.033 L225.217,907.3 L221.99,916.467 L252.896,929.683 C259.319,936.145 261.42,945.313 258.78,952.813 C256.065,960.521 249.7,962.232 239.587,957.907 L211.611,945.943 L208.384,955.109 L237.967,967.761 C251.576,973.582 260.755,970.676 264.753,959.323 z" fill="#44EE00"/>
      <path d="M264.753,959.323 C268.053,949.947 266.865,939.731 261.18,931.788 L267.245,934.022 C270.342,935.107 273.206,933.456 274.673,929.289 C275.004,928.352 275.218,927.124 275.579,925.481 L268.396,922.41 C267.569,924.452 266.424,924.922 264.346,924.033 L225.217,907.3 L221.99,916.467 L252.896,929.683 C259.319,936.145 261.42,945.313 258.78,952.813 C256.065,960.521 249.7,962.232 239.587,957.907 L211.611,945.943 L208.384,955.109 L237.967,967.761 C251.576,973.582 260.755,970.676 264.753,959.323 z" fill-opacity="0" stroke="#38C400" stroke-width="2"/>
    </g>
    <g>
      <path d="M283.651,852.19 C273.357,843.853 263.658,840.852 256.396,851.746 C250.872,860.029 249.752,870.768 253.255,879.289 L244.104,871.879 L239.303,879.082 L281.946,913.618 L287.229,905.694 L261.496,884.853 C256.482,877.467 256.426,866.606 260.748,860.124 C264.89,853.912 270.934,854.092 280.003,861.435 L303.857,880.754 L309.139,872.83 z" fill="#44EE00"/>
      <path d="M283.651,852.19 C273.357,843.853 263.658,840.852 256.396,851.746 C250.872,860.029 249.752,870.768 253.255,879.289 L244.104,871.879 L239.303,879.082 L281.946,913.618 L287.229,905.694 L261.496,884.853 C256.482,877.467 256.426,866.606 260.748,860.124 C264.89,853.912 270.934,854.092 280.003,861.435 L303.857,880.754 L309.139,872.83 z" fill-opacity="0" stroke="#38C400" stroke-width="2"/>
    </g>
    <g>
      <path d="M331.415,836.344 C331.065,837.589 329.729,841.305 327.086,843.914 C324.745,846.224 321.63,846.746 318.91,843.732 L297.003,816.759 L305.841,808.041 L301.175,802.296 L292.338,811.016 L280.573,796.53 L273.926,803.088 L285.691,817.574 L280.328,822.864 L284.994,828.609 L290.356,823.317 L314.089,852.537 C319.161,858.78 325.538,857.587 330.373,852.818 C334.602,848.645 336.748,843.079 337.734,840.607 z" fill="#44EE00"/>
      <path d="M331.415,836.344 C331.065,837.589 329.729,841.305 327.086,843.914 C324.745,846.224 321.63,846.746 318.91,843.732 L297.003,816.759 L305.841,808.041 L301.175,802.296 L292.338,811.016 L280.573,796.53 L273.926,803.088 L285.691,817.574 L280.328,822.864 L284.994,828.609 L290.356,823.317 L314.089,852.537 C319.161,858.78 325.538,857.587 330.373,852.818 C334.602,848.645 336.748,843.079 337.734,840.607 z" fill-opacity="0" stroke="#38C400" stroke-width="2"/>
    </g>
    <g>
      <path d="M358.353,830.247 C364.561,826.231 369.862,818.528 370.739,809.799 L372.813,813.252 C374.936,816.801 378.766,816.267 381.302,814.627 C382.176,814.062 383.211,813.134 384.245,812.206 L380.346,804.883 C378.545,805.917 377.385,805.502 376.255,803.382 L365.327,782.857 C358.554,770.137 347.296,767.312 335.667,774.834 C329.372,778.904 324.782,784.854 321.232,792.979 L326.692,796.831 C329.624,789.753 333.355,784.62 338.076,781.567 C345.683,776.646 352.811,778.774 357.171,786.964 L359.326,791.013 C355.007,791.733 349.685,793.879 345.226,796.762 C333.948,804.057 329.325,815.466 334.405,825.007 C338.971,833.583 349.171,836.184 358.353,830.247 z M356.89,822.642 C350.42,826.827 344.109,824.689 341.34,819.485 C338.107,813.415 341.3,806.168 349.17,801.078 C352.929,798.646 357.588,796.8 361.994,796.024 L365.945,803.443 C366.509,804.503 366.754,806.289 366.387,808.469 C365.559,813.537 361.785,819.476 356.89,822.642 z" fill="#44EE00"/>
      <path d="M358.353,830.247 C364.561,826.231 369.862,818.528 370.739,809.799 L372.813,813.252 C374.936,816.801 378.766,816.267 381.302,814.627 C382.176,814.062 383.211,813.134 384.245,812.206 L380.346,804.883 C378.545,805.917 377.385,805.502 376.255,803.382 L365.327,782.857 C358.554,770.137 347.296,767.312 335.667,774.834 C329.372,778.904 324.782,784.854 321.232,792.979 L326.692,796.831 C329.624,789.753 333.355,784.62 338.076,781.567 C345.683,776.646 352.811,778.774 357.171,786.964 L359.326,791.013 C355.007,791.733 349.685,793.879 345.226,796.762 C333.948,804.057 329.325,815.466 334.405,825.007 C338.971,833.583 349.171,836.184 358.353,830.247 z M356.89,822.642 C350.42,826.827 344.109,824.689 341.34,819.485 C338.107,813.415 341.3,806.168 349.17,801.078 C352.929,798.646 357.588,796.8 361.994,796.024 L365.945,803.443 C366.509,804.503 366.754,806.289 366.387,808.469 C365.559,813.537 361.785,819.476 356.89,822.642 z" fill-opacity="0" stroke="#38C400" stroke-width="2"/>
    </g>
    <g>
      <path d="M392.086,797.427 C394.454,804.681 399.869,807.402 406.355,804.829 C409.311,803.656 413.295,801.007 415.649,798.648 L411.877,791.713 C410.495,793.092 408.568,794.45 407.137,795.018 C403.608,796.418 400.72,794.834 399.381,790.734 L378.952,728.184 L370.557,731.512 z" fill="#44EE00"/>
      <path d="M392.086,797.427 C394.454,804.681 399.869,807.402 406.355,804.829 C409.311,803.656 413.295,801.007 415.649,798.648 L411.877,791.713 C410.495,793.092 408.568,794.45 407.137,795.018 C403.608,796.418 400.72,794.834 399.381,790.734 L378.952,728.184 L370.557,731.512 z" fill-opacity="0" stroke="#38C400" stroke-width="2"/>
    </g>
    <g>
      <path d="M445.745,794.79 C456.271,793.04 464.36,785.479 466.605,776.406 L458.668,775.352 C457.25,781.465 451.463,786.381 445.048,787.449 C435.926,788.966 427.118,782.295 424.759,771.049 L468.163,763.83 C468.173,763.151 468.06,761.588 467.849,760.041 C465.732,744.574 453.5,732.371 437.663,735.004 C421.924,737.622 412.758,753.045 414.983,769.285 C417.206,785.526 430.008,797.408 445.745,794.79 z M423.574,763.902 C422.779,752.847 429.339,743.846 438.661,742.296 C447.984,740.746 456.646,747.102 459.06,758 z" fill="#44EE00"/>
      <path d="M445.745,794.79 C456.271,793.04 464.36,785.479 466.605,776.406 L458.668,775.352 C457.25,781.465 451.463,786.381 445.048,787.449 C435.926,788.966 427.118,782.295 424.759,771.049 L468.163,763.83 C468.173,763.151 468.06,761.588 467.849,760.041 C465.732,744.574 453.5,732.371 437.663,735.004 C421.924,737.622 412.758,753.045 414.983,769.285 C417.206,785.526 430.008,797.408 445.745,794.79 z M423.574,763.902 C422.779,752.847 429.339,743.846 438.661,742.296 C447.984,740.746 456.646,747.102 459.06,758 z" fill-opacity="0" stroke="#38C400" stroke-width="2"/>
    </g>
    <g>
      <path d="M505.207,793.721 C515.785,795.032 525.374,790.037 529.672,781.912 L522.253,778.631 C519.447,784.129 512.704,787.23 506.257,786.431 C497.089,785.293 490.148,776.338 490.51,764.802 L534.13,770.21 C534.299,769.555 534.558,768.014 534.717,766.459 C536.302,750.915 527.355,735.639 511.437,733.666 C495.621,731.705 483.146,743.989 481.48,760.311 C479.815,776.631 489.39,791.76 505.207,793.721 z M491.043,757.561 C492.871,746.656 501.32,739.833 510.689,740.994 C520.058,742.155 526.932,750.766 526.707,761.98 z" fill="#44EE00"/>
      <path d="M505.207,793.721 C515.785,795.032 525.374,790.037 529.672,781.912 L522.253,778.631 C519.447,784.129 512.704,787.23 506.257,786.431 C497.089,785.293 490.148,776.338 490.51,764.802 L534.13,770.21 C534.299,769.555 534.558,768.014 534.717,766.459 C536.302,750.915 527.355,735.639 511.437,733.666 C495.621,731.705 483.146,743.989 481.48,760.311 C479.815,776.631 489.39,791.76 505.207,793.721 z M491.043,757.561 C492.871,746.656 501.32,739.833 510.689,740.994 C520.058,742.155 526.932,750.766 526.707,761.98 z" fill-opacity="0" stroke="#38C400" stroke-width="2"/>
    </g>
    <g>
      <path d="M645.408,766.082 L629.935,795.844 L595.542,774.126 L611.014,744.364 L603.097,739.366 L567.315,808.198 L575.232,813.196 L591.51,781.882 L625.904,803.6 L609.626,834.913 L617.542,839.912 L653.323,771.082 z" fill="#44EE00"/>
      <path d="M645.408,766.082 L629.935,795.844 L595.542,774.126 L611.014,744.364 L603.097,739.366 L567.315,808.198 L575.232,813.196 L591.51,781.882 L625.904,803.6 L609.626,834.913 L617.542,839.912 L653.323,771.082 z" fill-opacity="0" stroke="#38C400" stroke-width="2"/>
    </g>
    <g>
      <path d="M644.722,871.064 C655.623,883.845 672.286,882.99 682.996,871.893 C693.78,860.718 695.513,842.36 684.681,829.662 C673.918,817.044 657.186,817.819 646.402,828.992 C635.692,840.089 633.82,858.283 644.722,871.064 z M652.577,836.395 C660.628,828.053 672.471,827.744 679.067,835.478 C685.733,843.293 684.798,856.224 676.82,864.489 C668.769,872.832 657.001,873.063 650.336,865.248 C643.669,857.433 644.526,844.736 652.577,836.395 z" fill="#44EE00"/>
      <path d="M644.722,871.064 C655.623,883.845 672.286,882.99 682.996,871.893 C693.78,860.718 695.513,842.36 684.681,829.662 C673.918,817.044 657.186,817.819 646.402,828.992 C635.692,840.089 633.82,858.283 644.722,871.064 z M652.577,836.395 C660.628,828.053 672.471,827.744 679.067,835.478 C685.733,843.293 684.798,856.224 676.82,864.489 C668.769,872.832 657.001,873.063 650.336,865.248 C643.669,857.433 644.526,844.736 652.577,836.395 z" fill-opacity="0" stroke="#38C400" stroke-width="2"/>
    </g>
    <g>
      <path d="M676.467,918.178 C680.735,927.065 688.517,932.767 697.687,933.234 L692.185,936.822 C689.412,938.691 688.667,942.158 690.564,946.109 C690.991,946.998 691.692,947.979 692.582,949.357 L699.392,945.386 C698.533,943.358 698.96,942.098 700.932,940.948 L738.029,919.317 L733.857,910.626 L704.555,927.713 C695.917,928.83 688.256,924.576 684.842,917.466 C681.334,910.157 684.329,903.734 693.916,898.143 L720.44,882.678 L716.268,873.986 L688.221,890.341 C675.318,897.865 671.299,907.413 676.467,918.178 z" fill="#44EE00"/>
      <path d="M676.467,918.178 C680.735,927.065 688.517,932.767 697.687,933.234 L692.185,936.822 C689.412,938.691 688.667,942.158 690.564,946.109 C690.991,946.998 691.692,947.979 692.582,949.357 L699.392,945.386 C698.533,943.358 698.96,942.098 700.932,940.948 L738.029,919.317 L733.857,910.626 L704.555,927.713 C695.917,928.83 688.256,924.576 684.842,917.466 C681.334,910.157 684.329,903.734 693.916,898.143 L720.44,882.678 L716.268,873.986 L688.221,890.341 C675.318,897.865 671.299,907.413 676.467,918.178 z" fill-opacity="0" stroke="#38C400" stroke-width="2"/>
    </g>
    <g>
      <path d="M699.731,982.84 C702.808,996.504 710.886,1003.619 720.431,1001.009 C729.187,998.613 730.33,990.703 730.182,974.741 C730.174,964.498 730.426,960.514 735.247,959.197 C741.151,957.581 744.955,962.412 746.517,969.352 C747.909,975.534 747.432,982.226 744.669,988.046 L750.86,990.958 C753.747,984.758 754.768,976.305 752.863,967.847 C750.152,955.811 742.372,947.693 732.04,950.519 C723.972,952.726 722.904,959.119 722.931,973.616 C723.011,985.106 722.683,990.607 717.567,992.007 C712.254,993.459 707.909,989.007 706.077,980.874 C704.441,973.608 705.313,966.348 708.35,958.495 L701.617,955.963 C698.212,963.57 697.704,973.84 699.731,982.84 z" fill="#44EE00"/>
      <path d="M699.731,982.84 C702.808,996.504 710.886,1003.619 720.431,1001.009 C729.187,998.613 730.33,990.703 730.182,974.741 C730.174,964.498 730.426,960.514 735.247,959.197 C741.151,957.581 744.955,962.412 746.517,969.352 C747.909,975.534 747.432,982.226 744.669,988.046 L750.86,990.958 C753.747,984.758 754.768,976.305 752.863,967.847 C750.152,955.811 742.372,947.693 732.04,950.519 C723.972,952.726 722.904,959.119 722.931,973.616 C723.011,985.106 722.683,990.607 717.567,992.007 C712.254,993.459 707.909,989.007 706.077,980.874 C704.441,973.608 705.313,966.348 708.35,958.495 L701.617,955.963 C698.212,963.57 697.704,973.84 699.731,982.84 z" fill-opacity="0" stroke="#38C400" stroke-width="2"/>
    </g>
    <g>
      <path d="M706.232,1042.442 C706.262,1054.172 711.861,1064.1 719.676,1067.876 L721.785,1059.378 C716.508,1056.935 712.941,1049.907 712.924,1042.757 C712.899,1032.589 720.178,1023.964 730.617,1023.04 L730.736,1071.418 C731.344,1071.529 732.763,1071.636 734.183,1071.631 C748.375,1071.589 761.121,1060.044 761.077,1042.391 C761.035,1024.849 748.536,1012.596 733.633,1012.639 C718.731,1012.684 706.19,1024.9 706.232,1042.442 z M737.207,1022.796 C747.245,1023.549 754.362,1032.02 754.387,1042.411 C754.411,1052.802 747.438,1061.313 737.303,1062.348 z" fill="#44EE00"/>
      <path d="M706.232,1042.442 C706.262,1054.172 711.861,1064.1 719.676,1067.876 L721.785,1059.378 C716.508,1056.935 712.941,1049.907 712.924,1042.757 C712.899,1032.589 720.178,1023.964 730.617,1023.04 L730.736,1071.418 C731.344,1071.529 732.763,1071.636 734.183,1071.631 C748.375,1071.589 761.121,1060.044 761.077,1042.391 C761.035,1024.849 748.536,1012.596 733.633,1012.639 C718.731,1012.684 706.19,1024.9 706.232,1042.442 z M737.207,1022.796 C747.245,1023.549 754.362,1032.02 754.387,1042.411 C754.411,1052.802 747.438,1061.313 737.303,1062.348 z" fill-opacity="0" stroke="#38C400" stroke-width="2"/>
    </g>
  </g>
  <g id="object_names" display="none">
    <text transform="matrix(1, 0, 0, 1, 1222.826, 1069.601)" display="none">
      <tspan x="-97.664" y="12.5" font-family="Raleway-Medium" font-size="36" fill="#2B2B2B">Family Mart</tspan>
    </text>
    <g>
      <text transform="matrix(1, 0, 0, 1, 2112.518, 1275)" display="none">
        <tspan x="-107.096" y="12.5" font-family="Raleway-Medium" font-size="36" fill="#2B2B2B">Blue Canyon</tspan>
      </text>
      <text transform="matrix(1, 0, 0, 1, 2112.518, 1317)" display="none">
        <tspan x="-108.482" y="12.5" font-family="Raleway-Medium" font-size="36" fill="#2B2B2B">Country club</tspan>
      </text>
    </g>
    <g>
      <text transform="matrix(1, 0, 0, 1, 1806.776, 992.682)" display="none">
        <tspan x="-127.796" y="12.5" font-family="Raleway-Regular" font-size="36" fill="#333333">Wat Mongkhon</tspan>
      </text>
      <text transform="matrix(1, 0, 0, 1, 1806.776, 1034.682)" display="none">
        <tspan x="-85.028" y="12.5" font-family="Raleway-Regular" font-size="36" fill="#333333"> Wanaram</tspan>
      </text>
    </g>
    <text transform="matrix(0, -1, 1, 0, 2213.559, 824.506)" display="none">
      <tspan x="-94.61" y="20.5" font-family="Raleway-Regular" font-size="60" fill="#001799">Airport</tspan>
    </text>
  </g>
  <g id="Names">
    <g>
      <text transform="matrix(1, 0, 0, 1, 717.546, 561.421)">
        <tspan x="-69.575" y="20" font-family="Thonburi" font-size="48" fill="#001799">Indigo</tspan>
      </text>
      <text transform="matrix(1, 0, 0, 1, 717.546, 627.421)">
        <tspan x="-56.506" y="20" font-family="Thonburi" font-size="48" fill="#001799">Pearl</tspan>
      </text>
    </g>
    <text transform="matrix(1, 0, 0, 1, 1631.93, 569.546)">
      <tspan x="-63.144" y="20" font-family="Thonburi" font-size="48" fill="#001799">Dewa</tspan>
    </text>
    <g>
      <text transform="matrix(1, 0, 0, 1, 1100.503, 872.003)">
        <tspan x="-128.503" y="13.402" font-family="Thonburi" font-size="60" fill="#001799">Family</tspan>
      </text>
      <text transform="matrix(1, 0, 0, 1, 1100.503, 978.423)">
        <tspan x="-91.97" y="13.402" font-family="Thonburi" font-size="60" fill="#001799">Mart</tspan>
      </text>
    </g>
    <g>
      <text transform="matrix(1, 0, 0, 1, 1893.779, 945.13)">
        <tspan x="-176.845" y="-47.946" font-family="Thonburi" font-size="60" fill="#001799">Wat </tspan>
        <tspan x="-176.845" y="35.054" font-family="Thonburi" font-size="60" fill="#001799">Mongkhon</tspan>
      </text>
      <text transform="matrix(1, 0, 0, 1, 1935.394, 1125.109)">
        <tspan x="-218.459" y="-47.946" font-family="Thonburi" font-size="60" fill="#001799">Wanaram</tspan>
      </text>
    </g>
  </g>
</svg>
